<svg width="634" height="634" viewBox="0 0 634 634" fill="none" xmlns="http://www.w3.org/2000/svg">
<g clip-path="url(#clip0_28_3)">
<path d="M698 518.778H-64V519.159H698V518.778Z" fill="#EBEBEB"/>
<path d="M621.648 543.299H571.173V543.68H621.648V543.299Z" fill="#EBEBEB"/>
<path d="M440.779 547.444H427.536V547.825H440.779V547.444Z" fill="#EBEBEB"/>
<path d="M569.649 529.156H540.403V529.537H569.649V529.156Z" fill="#EBEBEB"/>
<path d="M81.7705 531.716H15.949V532.097H81.7705V531.716Z" fill="#EBEBEB"/>
<path d="M104.996 531.716H95.3494V532.097H104.996V531.716Z" fill="#EBEBEB"/>
<path d="M279.129 538.148H136.36V538.529H279.129V538.148Z" fill="#EBEBEB"/>
<path d="M301.327 401H75.6616C73.8938 400.997 72.1994 400.291 70.9504 399.038C69.7015 397.785 69 396.087 69 394.317V76.6247C69.0154 74.8644 69.7237 73.1812 70.971 71.9408C72.2183 70.7005 73.9038 70.003 75.6616 70H301.327C303.097 70 304.794 70.7041 306.045 71.9575C307.297 73.2108 308 74.9107 308 76.6832V394.317C308 396.089 307.297 397.789 306.045 399.043C304.794 400.296 303.097 401 301.327 401ZM75.6616 70.2341C73.9713 70.2372 72.3512 70.9118 71.157 72.11C69.9629 73.3081 69.2922 74.9318 69.2922 76.6247V394.317C69.2922 396.01 69.9629 397.633 71.157 398.832C72.3512 400.03 73.9713 400.704 75.6616 400.707H301.327C303.018 400.704 304.639 400.03 305.835 398.832C307.031 397.634 307.705 396.011 307.708 394.317V76.6247C307.705 74.9307 307.031 73.3071 305.835 72.1093C304.639 70.9115 303.018 70.2372 301.327 70.2341H75.6616Z" fill="#EBEBEB"/>
<path d="M554.35 401H328.673C326.904 400.997 325.209 400.292 323.958 399.039C322.707 397.786 322.003 396.088 322 394.317V76.6247C322.018 74.8633 322.729 73.1802 323.978 71.9401C325.228 70.7 326.914 70.003 328.673 70H554.35C556.106 70.0061 557.788 70.7049 559.033 71.945C560.278 73.185 560.985 74.8664 561 76.6247V394.317C561 396.085 560.3 397.782 559.054 399.034C557.807 400.287 556.116 400.994 554.35 401ZM328.673 70.2341C326.982 70.2372 325.361 70.9115 324.165 72.1093C322.969 73.3071 322.295 74.9307 322.292 76.6247V394.317C322.295 396.011 322.969 397.634 324.165 398.832C325.361 400.03 326.982 400.704 328.673 400.707H554.35C556.042 400.704 557.663 400.03 558.859 398.832C560.055 397.634 560.728 396.011 560.731 394.317V76.6247C560.728 74.9307 560.055 73.3071 558.859 72.1093C557.663 70.9115 556.042 70.2372 554.35 70.2341H328.673Z" fill="#EBEBEB"/>
<path d="M305.326 200.993H88.9487V518.244H305.326V200.993Z" fill="#F0F0F0"/>
<path d="M297.676 210.975H96.584V269.573H297.676V210.975Z" fill="#E0E0E0"/>
<path d="M108.014 220.455H96.584V269.558H108.014V220.455Z" fill="#EBEBEB"/>
<path d="M163.259 220.455H151.829V269.558H163.259V220.455Z" fill="#EBEBEB"/>
<path d="M225.959 219.221L214.695 221.163L223.036 269.553L234.3 267.611L225.959 219.221Z" fill="#EBEBEB"/>
<path d="M122.172 226.932H110.742V269.573H122.172V226.932Z" fill="#EBEBEB"/>
<path d="M148.43 226.932H137V269.573H148.43V226.932Z" fill="#EBEBEB"/>
<path d="M214.709 226.932H203.279V269.573H214.709V226.932Z" fill="#EBEBEB"/>
<path d="M178.272 225.452L167.114 227.932L176.365 269.558L187.523 267.078L178.272 225.452Z" fill="#EBEBEB"/>
<path d="M132.047 218.016H126.332V269.558H132.047V218.016Z" fill="#EBEBEB"/>
<path d="M199.987 218.016H194.272V269.558H199.987V218.016Z" fill="#EBEBEB"/>
<path d="M96.5991 337.452H297.691V278.854H96.5991V337.452Z" fill="#E0E0E0"/>
<path d="M286.246 337.437H297.676V288.333H286.246V337.437Z" fill="#EBEBEB"/>
<path d="M231.016 337.437H242.446V288.333H231.016V337.437Z" fill="#EBEBEB"/>
<path d="M159.978 335.486L171.242 337.427L179.583 289.038L168.319 287.096L159.978 335.486Z" fill="#EBEBEB"/>
<path d="M272.088 337.452H283.518V294.811H272.088V337.452Z" fill="#EBEBEB"/>
<path d="M245.844 337.452H257.274V294.811H245.844V337.452Z" fill="#EBEBEB"/>
<path d="M179.566 337.452H190.996V294.811H179.566V337.452Z" fill="#EBEBEB"/>
<path d="M206.789 334.961L217.947 337.441L227.198 295.815L216.04 293.335L206.789 334.961Z" fill="#EBEBEB"/>
<path d="M262.212 337.437H267.927V285.895H262.212V337.437Z" fill="#EBEBEB"/>
<path d="M194.287 337.437H200.002V285.895H194.287V337.437Z" fill="#EBEBEB"/>
<path d="M108.014 288.333H96.584V337.437H108.014V288.333Z" fill="#EBEBEB"/>
<path d="M122.172 294.795H110.742V337.437H122.172V294.795Z" fill="#EBEBEB"/>
<path d="M148.43 294.795H137V337.437H148.43V294.795Z" fill="#EBEBEB"/>
<path d="M132.047 285.895H126.332V337.437H132.047V285.895Z" fill="#EBEBEB"/>
<path d="M297.676 346.718H96.584V405.316H297.676V346.718Z" fill="#E0E0E0"/>
<path d="M223.442 356.197H212.012V405.301H223.442V356.197Z" fill="#EBEBEB"/>
<path d="M286.151 354.96L274.887 356.902L283.228 405.292L294.492 403.35L286.151 354.96Z" fill="#EBEBEB"/>
<path d="M182.355 362.674H170.925V405.316H182.355V362.674Z" fill="#EBEBEB"/>
<path d="M208.613 362.674H197.183V405.316H208.613V362.674Z" fill="#EBEBEB"/>
<path d="M274.892 362.674H263.462V405.316H274.892V362.674Z" fill="#EBEBEB"/>
<path d="M238.46 361.197L227.302 363.676L236.553 405.302L247.711 402.822L238.46 361.197Z" fill="#EBEBEB"/>
<path d="M192.23 353.759H186.515V405.3H192.23V353.759Z" fill="#EBEBEB"/>
<path d="M260.17 353.759H254.455V405.3H260.17V353.759Z" fill="#EBEBEB"/>
<path d="M154.726 354.972L143.462 356.913L151.803 405.303L163.067 403.361L154.726 354.972Z" fill="#EBEBEB"/>
<path d="M143.462 362.674H132.032V405.316H143.462V362.674Z" fill="#EBEBEB"/>
<path d="M107.036 361.196L95.8784 363.676L105.13 405.302L116.287 402.822L107.036 361.196Z" fill="#EBEBEB"/>
<path d="M128.756 353.759H123.041V405.3H128.756V353.759Z" fill="#EBEBEB"/>
<path d="M51.6107 519.067H88.9487L88.9487 200.993H51.6107L51.6107 519.067Z" fill="#E0E0E0"/>
<path d="M431.971 510.761H400.256L416.929 374.912C417.329 372.074 418.723 369.469 420.864 367.563C423.004 365.657 425.752 364.573 428.618 364.503H566.936L546.652 510.7L431.971 510.761Z" fill="#F5F5F5"/>
<path d="M532.555 510.761H564.269L580.957 374.912C581.161 373.606 581.075 372.271 580.706 371.002C580.336 369.733 579.693 368.561 578.821 367.568C577.948 366.575 576.869 365.786 575.658 365.256C574.447 364.727 573.134 364.47 571.813 364.503H560.916C558.056 364.591 555.318 365.681 553.181 367.584C551.044 369.487 549.644 372.081 549.227 374.912L532.555 510.761Z" fill="#F0F0F0"/>
<path d="M520.881 510.548L526.626 444.864C526.747 443.439 527.354 442.099 528.344 441.067C529.334 440.035 530.648 439.374 532.067 439.194L534.429 438.89C536.336 438.651 538.102 437.763 539.432 436.376C540.761 434.988 541.572 433.185 541.729 431.27L542.781 419.291C542.884 418.13 542.745 416.96 542.372 415.855C541.998 414.75 541.399 413.736 540.612 412.876C539.825 412.015 538.867 411.329 537.8 410.859C536.733 410.389 535.58 410.147 534.414 410.147H587.419C588.584 410.147 589.738 410.389 590.805 410.859C591.872 411.329 592.829 412.015 593.617 412.876C594.404 413.736 595.003 414.75 595.376 415.855C595.75 416.96 595.889 418.13 595.785 419.291L594.734 431.27C594.577 433.185 593.766 434.988 592.437 436.376C591.107 437.763 589.341 438.651 587.434 438.89L585.072 439.194C583.654 439.377 582.341 440.039 581.352 441.07C580.362 442.101 579.755 443.44 579.631 444.864L573.885 510.548C573.68 512.856 572.618 515.004 570.909 516.57C569.2 518.135 566.967 519.004 564.65 519.006H511.645C513.963 519.004 516.196 518.135 517.905 516.57C519.614 515.004 520.675 512.856 520.881 510.548Z" fill="#E6E6E6"/>
<path d="M375.003 428.481C374.583 423.495 372.306 418.848 368.623 415.461C364.94 412.074 360.119 410.194 355.115 410.193H401.262C406.252 410.213 411.054 412.102 414.722 415.487C418.389 418.872 420.655 423.508 421.074 428.481L425.646 480.54H379.56L375.003 428.481Z" fill="#E6E6E6"/>
<path d="M334.617 410.254H355.1C360.104 410.255 364.925 412.135 368.608 415.522C372.291 418.909 374.568 423.556 374.988 428.542L379.56 480.602H489.471L494.043 428.542C494.459 423.567 496.724 418.93 500.392 415.544C504.06 412.158 508.864 410.271 513.855 410.254H534.353C535.519 410.253 536.672 410.496 537.739 410.965C538.806 411.435 539.764 412.122 540.551 412.982C541.338 413.842 541.937 414.857 542.311 415.962C542.684 417.066 542.823 418.236 542.72 419.398L541.668 431.376C541.512 433.292 540.7 435.095 539.371 436.482C538.042 437.87 536.275 438.758 534.368 438.996L532.006 439.301C530.587 439.481 529.273 440.142 528.283 441.173C527.293 442.205 526.687 443.545 526.565 444.97L520.881 510.548C520.675 512.856 519.614 515.004 517.905 516.57C516.196 518.135 513.963 519.004 511.645 519.006H357.386C355.069 519.004 352.836 518.135 351.127 516.57C349.418 515.004 348.356 512.856 348.151 510.548L342.405 444.864C342.279 443.441 341.67 442.104 340.681 441.073C339.692 440.042 338.381 439.379 336.964 439.194L334.602 438.89C332.695 438.649 330.928 437.761 329.596 436.374C328.265 434.987 327.45 433.185 327.287 431.27L326.251 419.291C326.163 418.138 326.313 416.98 326.694 415.888C327.074 414.796 327.676 413.795 328.462 412.946C329.247 412.098 330.199 411.421 331.259 410.957C332.318 410.494 333.461 410.254 334.617 410.254Z" fill="#F0F0F0"/>
<path d="M91.6918 185.144C91.6918 185.144 90.0001 174.003 98.1231 166.856C106.246 159.708 105.53 155.471 103.198 154.923C100.866 154.374 98.7479 161.506 95.1817 163.472C95.1817 163.472 95.0598 153.292 98.6869 149.558C102.314 145.824 104.219 136.147 100.76 135.979C97.3001 135.812 96.9648 141.71 96.1876 145.901C95.4103 150.092 91.6156 155.974 91.6156 155.974C91.6156 155.974 90.8688 146.83 88.5676 143.127C86.2663 139.424 92.469 130.813 90.0916 127.079C87.7141 123.345 83.4012 130.462 83.7517 138.494C84.1023 146.525 89.4667 155.09 88.2171 163.472C88.2171 163.472 85.8549 157.574 83.7365 157.041C81.6181 156.508 79.4693 152.621 78.052 151.174C76.6347 149.726 74.8363 154.725 78.052 159.358C81.2676 163.99 89.4667 176.411 88.2171 186.439L91.6918 185.144Z" fill="#E6E6E6"/>
<path d="M96.5383 180.069L99.2053 196.756C99.3969 197.968 99.3236 199.207 98.9905 200.387C98.6574 201.568 98.0724 202.662 97.2757 203.595C96.4791 204.528 95.4898 205.277 94.3759 205.791C93.262 206.304 92.0499 206.571 90.8233 206.571H87.9886C86.762 206.571 85.5499 206.304 84.436 205.791C83.3221 205.277 82.3328 204.528 81.5361 203.595C80.7395 202.662 80.1545 201.568 79.8214 200.387C79.4883 199.207 79.415 197.968 79.6066 196.756L82.3041 180.069H96.5383Z" fill="#E6E6E6"/>
<path d="M256.116 203.31H264.392V167.724H256.116V203.31Z" fill="#EBEBEB"/>
<path d="M216.096 203.31H224.371V167.724H216.096V203.31Z" fill="#EBEBEB"/>
<path d="M164.622 201.895L172.777 203.301L178.822 168.233L170.667 166.827L164.622 201.895Z" fill="#EBEBEB"/>
<path d="M245.86 203.294H254.135V172.403H245.86V203.294Z" fill="#EBEBEB"/>
<path d="M226.84 203.294H235.115V172.403H226.84V203.294Z" fill="#EBEBEB"/>
<path d="M178.804 203.294H187.079V172.403H178.804V203.294Z" fill="#EBEBEB"/>
<path d="M198.54 201.502L206.618 203.298L213.32 173.142L205.242 171.347L198.54 201.502Z" fill="#EBEBEB"/>
<path d="M238.697 203.31H242.842V165.956H238.697V203.31Z" fill="#EBEBEB"/>
<path d="M189.457 203.31H193.602V165.956H189.457V203.31Z" fill="#EBEBEB"/>
<path d="M159.952 175.055H119.612V202.898H159.952V175.055Z" fill="#EBEBEB"/>
<path d="M298.301 186.454H264.513V207.241H298.301V186.454Z" fill="#EBEBEB"/>
<path d="M290.406 168.181H273.505V188.969H290.406V168.181Z" fill="#EBEBEB"/>
<path d="M572.743 140.673H532.555V308.13H572.743V140.673Z" fill="#E0E0E0"/>
<path d="M418.133 308.587H568.429V140.688L418.133 140.688V308.587Z" fill="#E0E0E0"/>
<path d="M413.286 308.587H569.222V140.688L413.286 140.688V308.587Z" fill="#F0F0F0"/>
<path d="M419.962 300.861H562.821V146.022L419.962 146.022V300.861Z" fill="white"/>
<path d="M419.946 300.861H422.598V146.022H419.946V300.861Z" fill="#E0E0E0"/>
<path d="M422.171 257.381V261.557H563.202V257.381H422.171Z" fill="#E0E0E0"/>
<path d="M419.946 257.366H565.046V250.356L419.946 250.356V257.366Z" fill="#F0F0F0"/>
<g filter="url(#filter0_d_28_3)">
<path d="M317 587.601C480.194 587.601 612.488 579.878 612.488 570.35C612.488 560.822 480.194 553.098 317 553.098C153.806 553.098 21.5117 560.822 21.5117 570.35C21.5117 579.878 153.806 587.601 317 587.601Z" fill="#F5F5F5"/>
</g>
<g filter="url(#filter1_d_28_3)">
<path d="M426.652 168.898H153.993C147.832 168.898 142.837 173.892 142.837 180.053V501.099C142.837 507.26 147.832 512.255 153.993 512.255H426.652C432.813 512.255 437.808 507.26 437.808 501.099V180.053C437.808 173.892 432.813 168.898 426.652 168.898Z" fill="#FF3500"/>
<path opacity="0.6" d="M426.652 168.898H153.993C147.832 168.898 142.837 173.892 142.837 180.053V501.099C142.837 507.26 147.832 512.255 153.993 512.255H426.652C432.813 512.255 437.808 507.26 437.808 501.099V180.053C437.808 173.892 432.813 168.898 426.652 168.898Z" fill="white"/>
<path d="M390.03 326.373H190.63V360.51H390.03V326.373Z" fill="white"/>
<path d="M390.03 373.007H190.63V407.145H390.03V373.007Z" fill="white"/>
<path opacity="0.2" d="M390.03 441.968H190.63V476.106H390.03V441.968Z" fill="black"/>
<path d="M390.327 440.292H190.927V474.43H390.327V440.292Z" fill="#FF3500"/>
<path d="M246.548 456.978C246.548 453.906 249.038 451.416 252.11 451.416H328.124C331.196 451.416 333.686 453.906 333.686 456.978V456.978C333.686 460.05 331.196 462.54 328.124 462.54H252.11C249.038 462.54 246.548 460.05 246.548 456.978V456.978Z" fill="white"/>
<path d="M228.007 423.606C228.007 422.582 228.837 421.752 229.861 421.752H350.372C351.396 421.752 352.226 422.582 352.226 423.606V423.606C352.226 424.63 351.396 425.46 350.372 425.46H229.861C228.837 425.46 228.007 424.63 228.007 423.606V423.606Z" fill="#838383"/>
<path d="M390.03 279.723H190.63V313.861H390.03V279.723Z" fill="white"/>
<rect x="201.124" y="291.971" width="87.1387" height="11.1241" rx="5.56204" fill="#D9D9D9"/>
<rect x="201.124" y="338.321" width="87.1387" height="11.1241" rx="5.56204" fill="#D9D9D9"/>
<rect x="201.124" y="384.672" width="87.1387" height="11.1241" rx="5.56204" fill="#D9D9D9"/>
<path d="M390.03 232.642H190.63V266.78H390.03V232.642Z" fill="white"/>
</g>
<g filter="url(#filter2_d_28_3)">
<path d="M115.603 523.167H114.156C114.156 521.018 115.939 470.665 124.702 462.207C133.708 453.444 144.3 462.085 144.392 462.207L143.477 463.304C143.081 462.984 133.769 455.425 125.692 463.304C117.356 471.244 115.619 522.648 115.603 523.167Z" fill="#FF3500"/>
<path d="M114.872 533.271L113.439 533.134C113.439 532.524 119.109 471.991 97.1782 446.814L98.2603 445.869C120.602 471.518 114.933 532.661 114.872 533.271Z" fill="#FF3500"/>
<path d="M115.573 526.809C115.39 523.944 111.169 456.705 128.024 441.16L128.999 442.227C112.647 457.254 116.96 526.047 117.006 526.702L115.573 526.809Z" fill="#FF3500"/>
<path d="M113.439 526.763C113.439 526.306 112.921 481.043 100.927 474.231C99.9076 473.559 98.7413 473.141 97.5266 473.014C96.3118 472.886 95.0843 473.053 93.9474 473.499C86.9217 476.41 83.1879 489.821 83.1422 489.959L81.7554 489.578C81.9078 488.998 85.7178 475.359 93.3987 472.174C94.7368 471.636 96.1847 471.429 97.6199 471.569C99.0551 471.71 100.435 472.194 101.644 472.981C114.338 480.251 114.872 524.797 114.887 526.748L113.439 526.763Z" fill="#FF3500"/>
<path d="M118.377 526.794C118.286 525.27 116.441 491.071 126.149 478.376C128.74 475.008 131.605 473.408 134.714 473.637C141.618 474.109 146.906 483.466 147.196 483.863L145.946 484.579C145.946 484.488 140.734 475.435 134.608 475.069C132.032 474.871 129.563 476.288 127.292 479.26C117.905 491.452 119.794 526.367 119.81 526.718L118.377 526.794Z" fill="#FF3500"/>
<path d="M116.442 531.533L115.009 531.427C115.009 530.604 121.105 448.948 111.047 435.323L112.205 434.47C122.599 448.521 116.701 528.15 116.442 531.533Z" fill="#FF3500"/>
<path d="M90.6098 480.296C90.6098 480.296 96.8277 482.598 94.9837 488.008C93.1396 493.418 73.4496 502.333 73.4496 502.333C73.4496 502.333 65.2047 494.79 72.779 482.521C80.3533 470.253 90.4422 476.425 90.6098 480.296Z" fill="#FF3500"/>
<path opacity="0.2" d="M90.6098 480.296C90.6098 480.296 96.8277 482.598 94.9837 488.008C93.1396 493.418 73.4496 502.333 73.4496 502.333C73.4496 502.333 65.2047 494.79 72.779 482.521C80.3533 470.253 90.4422 476.425 90.6098 480.296Z" fill="black"/>
<path d="M117.661 469.994C117.661 469.994 111.031 469.72 110.65 475.42C110.269 481.12 124.976 496.939 124.976 496.939C124.976 496.939 135.492 493.129 133.236 478.879C130.981 464.63 119.307 466.474 117.661 469.994Z" fill="#FF3500"/>
<path opacity="0.2" d="M117.661 469.994C117.661 469.994 111.031 469.72 110.65 475.42C110.269 481.12 124.976 496.939 124.976 496.939C124.976 496.939 135.492 493.129 133.236 478.879C130.981 464.63 119.307 466.474 117.661 469.994Z" fill="black"/>
<path d="M123.269 442.654C123.269 442.654 118.849 442.181 119.2 439.499C119.55 436.817 136.375 429.883 146.297 441.023C146.297 441.023 139.942 451.935 130.767 452.087C121.593 452.24 123.269 442.654 123.269 442.654Z" fill="#FF3500"/>
<path opacity="0.2" d="M123.269 442.654C123.269 442.654 118.849 442.181 119.2 439.499C119.55 436.817 136.375 429.883 146.297 441.023C146.297 441.023 139.942 451.935 130.767 452.087C121.593 452.24 123.269 442.654 123.269 442.654Z" fill="black"/>
<path d="M115.04 436.116C115.04 436.116 119.032 438.051 120.16 435.582C121.288 433.113 110.666 418.346 96.3249 422.598C96.3249 422.598 95.9439 435.217 103.655 440.2C111.367 445.184 115.04 436.116 115.04 436.116Z" fill="#FF3500"/>
<path opacity="0.2" d="M115.04 436.116C115.04 436.116 119.032 438.051 120.16 435.582C121.288 433.113 110.666 418.346 96.3249 422.598C96.3249 422.598 95.9439 435.217 103.655 440.2C111.367 445.184 115.04 436.116 115.04 436.116Z" fill="black"/>
<path d="M135.949 478.132C135.949 478.132 132.901 475.664 136.193 474.46C139.484 473.256 155.624 473.606 155.791 489.593C155.791 489.593 136.985 492.717 134.669 486.621C132.352 480.525 135.949 478.132 135.949 478.132Z" fill="#FF3500"/>
<path opacity="0.2" d="M135.949 478.132C135.949 478.132 132.901 475.664 136.193 474.46C139.484 473.256 155.624 473.606 155.791 489.593C155.791 489.593 136.985 492.717 134.669 486.621C132.352 480.525 135.949 478.132 135.949 478.132Z" fill="black"/>
<path d="M97.5439 442.257C97.5439 442.257 100.592 439.789 97.3 438.6C94.0082 437.411 77.8691 437.731 77.7014 453.718C77.7014 453.718 96.5076 456.857 98.824 450.761C101.141 444.665 97.5439 442.257 97.5439 442.257Z" fill="#FF3500"/>
<path opacity="0.2" d="M97.5439 442.257C97.5439 442.257 100.592 439.789 97.3 438.6C94.0082 437.411 77.8691 437.731 77.7014 453.718C77.7014 453.718 96.5076 456.857 98.824 450.761C101.141 444.665 97.5439 442.257 97.5439 442.257Z" fill="black"/>
<path d="M107.541 455.135C107.541 455.135 107.816 452.087 105.393 453.322C102.969 454.556 94.5722 463.578 103.29 472.189C103.29 472.189 115.04 463.487 112.921 458.96C110.803 454.434 107.541 455.135 107.541 455.135Z" fill="#FF3500"/>
<path opacity="0.2" d="M107.541 455.135C107.541 455.135 107.816 452.087 105.393 453.322C102.969 454.556 94.5722 463.578 103.29 472.189C103.29 472.189 115.04 463.487 112.921 458.96C110.803 454.434 107.541 455.135 107.541 455.135Z" fill="black"/>
<path d="M138.692 459.403C138.692 459.403 136.863 457.01 139.545 456.72C142.228 456.431 154.176 459.616 151.387 471.564C151.387 471.564 136.817 470.467 136.147 465.468C135.476 460.469 138.692 459.403 138.692 459.403Z" fill="#FF3500"/>
<path opacity="0.2" d="M138.692 459.403C138.692 459.403 136.863 457.01 139.545 456.72C142.228 456.431 154.176 459.616 151.387 471.564C151.387 471.564 136.817 470.467 136.147 465.468C135.476 460.469 138.692 459.403 138.692 459.403Z" fill="black"/>
<path d="M91.6919 571.081H138.799L145.062 525.27H85.4282L91.6919 571.081Z" fill="#263238"/>
<path opacity="0.2" d="M91.6919 571.081H138.799L145.062 525.27H85.4282L91.6919 571.081Z" fill="white"/>
<path d="M150.976 521.551V525.91C150.976 527.308 150.42 528.65 149.431 529.638C148.442 530.627 147.101 531.183 145.702 531.183H84.2091C82.8106 531.183 81.4694 530.627 80.4805 529.638C79.4916 528.65 78.936 527.308 78.936 525.91V521.551H150.976Z" fill="#263238"/>
</g>
<g filter="url(#filter3_d_28_3)">
<path d="M543.497 87.3485H499.712C496.139 87.3485 492.713 88.7678 490.186 91.2944C487.66 93.8209 486.24 97.2476 486.24 100.821V138.921C486.238 140.691 486.585 142.445 487.261 144.081C487.938 145.717 488.93 147.204 490.181 148.457C491.432 149.709 492.918 150.703 494.553 151.381C496.189 152.059 497.942 152.408 499.712 152.408H512.499L509.451 164.432L521.643 152.408H543.573C547.15 152.408 550.581 150.987 553.11 148.458C555.64 145.928 557.061 142.498 557.061 138.921V100.821C557.061 99.0437 556.709 97.2843 556.026 95.6438C555.344 94.0033 554.343 92.5141 553.082 91.2619C551.822 90.0097 550.326 89.0192 548.681 88.3476C547.036 87.676 545.274 87.3364 543.497 87.3485Z" fill="#FF3500"/>
<path opacity="0.7" d="M543.497 87.3485H499.712C496.139 87.3485 492.713 88.7678 490.186 91.2944C487.66 93.8209 486.24 97.2476 486.24 100.821V138.921C486.238 140.691 486.585 142.445 487.261 144.081C487.938 145.717 488.93 147.204 490.181 148.457C491.432 149.709 492.918 150.703 494.553 151.381C496.189 152.059 497.942 152.408 499.712 152.408H512.499L509.451 164.432L521.643 152.408H543.573C547.15 152.408 550.581 150.987 553.11 148.458C555.64 145.928 557.061 142.498 557.061 138.921V100.821C557.061 99.0437 556.709 97.2843 556.026 95.6438C555.344 94.0033 554.343 92.5141 553.082 91.2619C551.822 90.0097 550.326 89.0192 548.681 88.3476C547.036 87.676 545.274 87.3364 543.497 87.3485Z" fill="white"/>
<path d="M521.612 136.711C530.997 136.711 538.605 129.103 538.605 119.718C538.605 110.333 530.997 102.726 521.612 102.726C512.228 102.726 504.62 110.333 504.62 119.718C504.62 129.103 512.228 136.711 521.612 136.711Z" fill="white"/>
<path d="M521.612 97.9861C517.314 97.9861 513.112 99.2607 509.539 101.649C505.965 104.037 503.179 107.431 501.534 111.402C499.89 115.373 499.459 119.742 500.298 123.958C501.136 128.174 503.206 132.046 506.245 135.085C509.285 138.125 513.157 140.194 517.373 141.033C521.588 141.872 525.958 141.441 529.929 139.796C533.9 138.151 537.294 135.366 539.682 131.792C542.07 128.218 543.345 124.017 543.345 119.718C543.347 116.864 542.786 114.037 541.694 111.399C540.603 108.762 539.002 106.365 536.984 104.347C534.965 102.328 532.569 100.728 529.931 99.6363C527.294 98.5448 524.467 97.9841 521.612 97.9861ZM533.942 113.226L520.85 128.649C520.665 128.872 520.431 129.05 520.168 129.172C519.904 129.293 519.617 129.354 519.326 129.35C519.037 129.352 518.75 129.29 518.487 129.169C518.223 129.048 517.99 128.87 517.802 128.649L509.283 118.606C509.103 118.407 508.965 118.174 508.877 117.921C508.789 117.668 508.753 117.4 508.77 117.132C508.788 116.865 508.86 116.604 508.98 116.365C509.101 116.126 509.269 115.913 509.474 115.74C509.679 115.567 509.916 115.437 510.172 115.358C510.428 115.279 510.697 115.252 510.964 115.279C511.231 115.306 511.489 115.386 511.724 115.515C511.959 115.645 512.165 115.82 512.331 116.03L519.326 124.275L530.894 110.651C531.241 110.267 531.724 110.034 532.24 109.999C532.757 109.965 533.266 110.132 533.661 110.466C534.057 110.8 534.307 111.275 534.359 111.79C534.411 112.304 534.262 112.819 533.942 113.226Z" fill="#FF3500"/>
</g>
<g filter="url(#filter4_d_28_3)">
<path d="M535.907 322.425C535.907 322.425 509.375 319.073 469.171 330.045C469.171 330.045 462.71 258.204 463.472 248.328C464.234 238.453 525.544 241.349 525.544 241.349C525.544 241.349 527.068 270.106 531.061 287.45C535.054 304.793 537.98 319.088 535.907 322.425Z" fill="#FF3500"/>
<path opacity="0.2" d="M535.907 322.425C535.907 322.425 509.375 319.073 469.171 330.045C469.171 330.045 462.71 258.204 463.472 248.328C464.234 238.453 525.544 241.349 525.544 241.349C525.544 241.349 527.068 270.106 531.061 287.45C535.054 304.793 537.98 319.088 535.907 322.425Z" fill="black"/>
<path d="M449.786 560.261L460.607 563.324L463.182 546.484L464.569 537.477L453.749 534.414L451.904 546.484L449.786 560.261Z" fill="#E4897B"/>
<path d="M511.996 561.145L523.151 562.623L523.258 546.484L523.334 536.456L512.163 534.993L512.087 546.484L511.996 561.145Z" fill="#E4897B"/>
<path opacity="0.2" d="M512.164 534.993L512.087 546.484H523.258L523.335 536.456L512.164 534.993Z" fill="black"/>
<path opacity="0.2" d="M451.905 546.484H463.182L464.569 537.477L453.749 534.414L451.905 546.484Z" fill="black"/>
<path d="M401.75 254.226L391.005 251.056L392.971 263.325C392.971 263.325 402.725 265.565 403.639 260.49L401.75 254.226Z" fill="#E4897B"/>
<path d="M380.276 253.906L385.549 263.873L392.971 263.325L391.005 251.056L380.276 253.906Z" fill="#E4897B"/>
<path d="M416.578 257.366L398.93 253.419L397.33 261.984L413.347 265.885L416.578 257.366Z" fill="#E4897B"/>
<path d="M469.964 249.624L468.928 250.858C466.703 253.464 461.308 259.758 455.684 265.184C451.112 269.603 446.54 273.459 443.492 274.236C434.851 276.461 403.441 267.211 403.441 267.211L406.688 254.47C406.688 254.47 435.948 258.356 438.219 258.356C439.941 258.356 457.742 232.57 462.054 230.452L469.964 249.624Z" fill="#FF3500"/>
<path opacity="0.2" d="M468.928 250.858C466.703 253.464 461.308 259.759 455.684 265.184C456.812 256.253 460.088 248.054 464.401 242.873C464.803 242.372 465.264 241.922 465.773 241.531L468.928 250.858Z" fill="black"/>
<path d="M449.923 558.569L462.207 558.249C462.428 558.242 462.645 558.311 462.823 558.444C463 558.577 463.127 558.766 463.182 558.981L465.773 568.871C465.835 569.108 465.843 569.356 465.796 569.596C465.749 569.836 465.648 570.063 465.502 570.259C465.356 570.455 465.167 570.616 464.95 570.729C464.733 570.842 464.493 570.905 464.249 570.913C459.814 570.913 453.398 570.913 447.835 571.02C441.313 571.203 437.167 570.883 429.547 571.02C424.975 571.142 423.451 566.54 425.402 566.067C434.135 563.903 439.85 564.33 447.287 559.453C448.072 558.93 448.982 558.625 449.923 558.569Z" fill="#263238"/>
<path d="M448.857 560.154C447.058 560.55 443.858 561.084 442.578 560.032C442.391 559.878 442.244 559.681 442.149 559.459C442.053 559.236 442.012 558.994 442.029 558.752C442.028 558.607 442.066 558.464 442.138 558.339C442.211 558.213 442.315 558.108 442.441 558.036C443.797 557.228 448.384 559.407 448.918 559.651C448.964 559.676 449.003 559.714 449.03 559.759C449.057 559.805 449.071 559.857 449.07 559.91C449.067 559.969 449.045 560.025 449.006 560.07C448.967 560.114 448.915 560.144 448.857 560.154ZM442.761 558.463H442.669C442.618 558.492 442.576 558.534 442.547 558.585C442.517 558.636 442.502 558.693 442.502 558.752C442.489 558.91 442.514 559.068 442.575 559.214C442.636 559.36 442.731 559.489 442.852 559.59C443.568 560.185 445.428 560.246 447.896 559.758C446.113 559.011 443.629 558.142 442.791 558.463H442.761Z" fill="#FF3500"/>
<path d="M448.856 560.154H448.674C447.287 559.575 444.513 557.228 444.665 555.963C444.665 555.658 444.909 555.277 445.641 555.186C445.909 555.151 446.182 555.169 446.444 555.24C446.705 555.31 446.95 555.432 447.165 555.597C448.689 556.74 449.039 559.743 449.07 559.864C449.074 559.911 449.067 559.958 449.048 560C449.029 560.043 449 560.08 448.963 560.108L448.856 560.154ZM445.443 555.78C445.214 555.856 445.199 555.978 445.199 556.024C445.107 556.786 446.997 558.645 448.415 559.438C448.251 558.158 447.685 556.962 446.799 556.024C446.649 555.898 446.473 555.805 446.284 555.752C446.094 555.7 445.896 555.688 445.702 555.719C445.613 555.727 445.526 555.748 445.443 555.78Z" fill="#FF3500"/>
<path d="M512.438 558.569L524.721 558.249C524.945 558.241 525.164 558.309 525.344 558.442C525.524 558.575 525.653 558.765 525.712 558.981L528.287 568.871C528.352 569.108 528.362 569.357 528.317 569.598C528.271 569.84 528.171 570.068 528.024 570.265C527.877 570.462 527.687 570.622 527.469 570.735C527.25 570.847 527.009 570.908 526.763 570.914C522.329 570.914 515.912 570.914 510.335 571.02C503.827 571.203 499.667 570.883 492.047 571.02C487.475 571.142 485.951 566.54 487.901 566.067C496.634 563.903 502.334 564.33 509.771 559.453C510.564 558.925 511.486 558.619 512.438 558.569Z" fill="#263238"/>
<path d="M511.386 560.154C509.588 560.55 506.372 561.084 505.107 560.032C504.921 559.878 504.774 559.681 504.678 559.459C504.583 559.236 504.542 558.994 504.559 558.752C504.558 558.607 504.596 558.464 504.668 558.339C504.74 558.213 504.845 558.108 504.97 558.036C506.311 557.228 510.914 559.407 511.432 559.651C511.483 559.671 511.525 559.708 511.553 559.754C511.581 559.801 511.592 559.856 511.584 559.91C511.58 559.966 511.559 560.02 511.524 560.063C511.488 560.107 511.44 560.139 511.386 560.154ZM505.29 558.463H505.199C505.149 558.491 505.108 558.534 505.081 558.585C505.054 558.636 505.042 558.694 505.047 558.752C505.031 558.91 505.055 559.069 505.116 559.215C505.178 559.362 505.274 559.49 505.397 559.59C506.113 560.185 507.957 560.246 510.441 559.758C508.628 559.011 506.144 558.142 505.306 558.463H505.29Z" fill="#FF3500"/>
<path d="M511.386 560.154H511.188C509.817 559.575 507.028 557.228 507.195 555.963C507.195 555.658 507.424 555.277 508.155 555.186C508.424 555.149 508.697 555.166 508.959 555.237C509.221 555.308 509.466 555.43 509.679 555.597C510.746 556.785 511.412 558.278 511.584 559.864C511.592 559.911 511.586 559.959 511.567 560.002C511.548 560.045 511.517 560.082 511.478 560.108L511.386 560.154ZM507.957 555.78C507.744 555.856 507.729 555.978 507.729 556.024C507.622 556.786 509.527 558.645 510.944 559.438C510.77 558.161 510.206 556.969 509.329 556.024C509.178 555.898 509.002 555.806 508.813 555.754C508.624 555.701 508.426 555.689 508.232 555.719L507.957 555.78Z" fill="#FF3500"/>
<path d="M535.008 315.872C540.921 341.491 530.771 543.04 530.771 543.04H511.173L502.791 375.079L471.93 543.04L450.975 541.516C464.691 411.396 476.776 333.718 476.776 333.718V323.904L535.008 315.872Z" fill="#263238"/>
<path opacity="0.4" d="M450.975 541.516L471.93 543.04L496.222 410.817L502.791 375.079L511.173 543.04H530.771C530.771 543.04 540.921 341.491 535.008 315.872L476.746 323.904V333.718C476.746 333.718 464.676 411.396 450.975 541.516Z" fill="white"/>
<path d="M524.447 220.988C523.846 233.237 524.157 245.513 525.377 257.716C526.2 266.251 527.327 274.313 528.531 281.582C531.351 298.636 534.551 311.422 535.008 315.887L476.746 323.919C455.501 264.483 463.502 229.949 463.502 229.949C467.859 228.15 472.322 226.623 476.868 225.377C477.828 225.118 478.803 224.874 479.809 224.646C487.992 223.035 496.261 221.896 504.574 221.232C506.098 221.095 507.759 220.988 509.314 220.912C517.269 220.515 524.447 220.988 524.447 220.988Z" fill="#263238"/>
<path d="M493.266 194.242C493.693 202.395 494.561 217.696 501.343 221.582C501.343 221.582 497.122 229.614 487.993 230.437C481.089 231.046 481.546 224.234 481.546 224.234C485.539 221.262 484.594 216.218 481.546 210.518L493.266 194.242Z" fill="#E4897B"/>
<path opacity="0.2" d="M488.481 200.886L481.592 210.518C482.317 211.835 482.929 213.212 483.421 214.633C486.621 213.353 490.294 208.537 489.761 205.047C489.594 203.593 489.16 202.182 488.481 200.886Z" fill="black"/>
<path d="M463.548 177.828C462.222 182.065 462.954 190.752 468.851 187.932C474.749 185.113 465.834 170.559 463.548 177.828Z" fill="#263238"/>
<path d="M494.028 183.558C494.683 194.425 495.552 200.749 490.812 206.906C483.604 216.157 469.644 212.713 465.743 202.227C462.237 192.779 461.765 176.594 471.839 171.107C474.071 169.893 476.576 169.264 479.118 169.281C481.66 169.297 484.156 169.958 486.373 171.202C488.59 172.446 490.455 174.232 491.794 176.393C493.133 178.554 493.901 181.02 494.028 183.558Z" fill="#E4897B"/>
<path d="M486.408 177.645V165.453C486.408 165.453 499.331 164.493 498.752 171.107C505.915 174.658 502.532 185.799 492.915 191.255C487.642 187.033 488.252 176.883 488.252 176.883C487.688 177.173 487.048 177.417 486.408 177.645Z" fill="#263238"/>
<path d="M499.286 192.032C499.037 193.361 498.524 194.627 497.778 195.755C497.032 196.883 496.068 197.851 494.942 198.6C491.894 200.597 489.258 198.143 489.151 194.714C489.06 191.666 490.507 186.85 494.013 186.241C494.779 186.121 495.564 186.193 496.296 186.451C497.027 186.709 497.684 187.145 498.206 187.718C498.729 188.292 499.101 188.986 499.289 189.739C499.478 190.492 499.476 191.28 499.286 192.032Z" fill="#E4897B"/>
<path d="M477.98 188.405C478.087 189.289 477.706 190.051 477.127 190.112C476.548 190.173 475.999 189.517 475.892 188.588C475.786 187.658 476.167 186.942 476.731 186.881C477.294 186.82 477.874 187.46 477.98 188.405Z" fill="#263238"/>
<path d="M468.013 189.517C468.12 190.401 467.739 191.163 467.16 191.224C466.581 191.285 466.032 190.63 465.925 189.7C465.819 188.771 466.2 188.054 466.779 187.993C467.358 187.932 467.876 188.634 468.013 189.517Z" fill="#263238"/>
<path d="M471.229 189.594C470.459 192.319 469.315 194.924 467.83 197.335C468.488 197.673 469.209 197.868 469.947 197.908C470.685 197.947 471.423 197.83 472.113 197.564L471.229 189.594Z" fill="#DE5753"/>
<path d="M477.249 200.399C476.873 200.495 476.491 200.566 476.106 200.612C476.037 200.612 475.971 200.585 475.923 200.536C475.874 200.488 475.847 200.422 475.847 200.353C475.847 200.284 475.874 200.218 475.923 200.17C475.971 200.121 476.037 200.094 476.106 200.094C477.2 199.995 478.256 199.639 479.188 199.057C480.12 198.475 480.901 197.681 481.47 196.741C481.483 196.71 481.503 196.682 481.527 196.659C481.551 196.636 481.58 196.619 481.611 196.607C481.643 196.596 481.676 196.591 481.71 196.593C481.743 196.595 481.776 196.604 481.806 196.619C481.837 196.634 481.865 196.655 481.888 196.68C481.911 196.706 481.929 196.736 481.94 196.769C481.952 196.801 481.956 196.836 481.954 196.871C481.952 196.905 481.943 196.939 481.927 196.97C481.429 197.835 480.756 198.587 479.95 199.178C479.144 199.768 478.224 200.184 477.249 200.399Z" fill="#263238"/>
<path d="M480.662 184.854C480.57 184.875 480.474 184.873 480.383 184.846C480.293 184.819 480.21 184.77 480.144 184.702C479.703 184.218 479.155 183.844 478.544 183.608C477.933 183.373 477.276 183.283 476.624 183.345C476.557 183.361 476.487 183.362 476.419 183.35C476.351 183.337 476.287 183.311 476.23 183.272C476.172 183.233 476.124 183.183 476.087 183.125C476.05 183.067 476.025 183.002 476.014 182.934C476.001 182.867 476.001 182.798 476.015 182.731C476.028 182.664 476.055 182.6 476.093 182.543C476.131 182.487 476.18 182.438 476.237 182.4C476.295 182.363 476.359 182.337 476.426 182.324C477.248 182.226 478.083 182.326 478.859 182.615C479.636 182.904 480.332 183.373 480.891 183.985C480.941 184.032 480.981 184.089 481.008 184.152C481.035 184.215 481.049 184.283 481.049 184.351C481.049 184.42 481.035 184.487 481.008 184.55C480.981 184.613 480.941 184.67 480.891 184.717C480.826 184.779 480.748 184.826 480.662 184.854Z" fill="#263238"/>
<path d="M463.304 186.576C463.206 186.614 463.097 186.614 462.999 186.576C462.87 186.531 462.764 186.437 462.704 186.314C462.644 186.192 462.635 186.05 462.679 185.921C462.931 185.136 463.369 184.424 463.955 183.846C464.542 183.267 465.259 182.839 466.047 182.598C466.181 182.564 466.322 182.584 466.441 182.654C466.559 182.724 466.645 182.838 466.68 182.972C466.714 183.105 466.694 183.247 466.624 183.365C466.554 183.484 466.44 183.57 466.306 183.604C465.683 183.796 465.117 184.139 464.657 184.601C464.197 185.063 463.858 185.632 463.67 186.256C463.641 186.336 463.592 186.407 463.528 186.463C463.464 186.519 463.387 186.558 463.304 186.576Z" fill="#263238"/>
<path d="M492.138 182.156C492.138 182.156 484.518 179.367 481.043 174.948C481.043 174.948 474.124 176.761 472.707 179.52C472.06 178.966 471.642 178.192 471.532 177.348C471.422 176.504 471.629 175.649 472.113 174.948C472.113 174.948 466.931 176.045 465.91 179.52C465.068 179.119 464.377 178.459 463.938 177.636C463.499 176.813 463.335 175.871 463.472 174.948C463.472 174.948 461.17 175.817 460.424 179.52C460.424 179.52 454.709 167.602 473.591 164.188C472.162 163.704 470.665 163.451 469.156 163.442C469.156 163.442 482.339 158.123 492.778 162.984C503.218 167.846 501.404 177.264 492.138 182.156Z" fill="#263238"/>
<path d="M539.504 326.144L521.216 328.582C521.216 328.582 513.672 275.867 510.35 258.844V222.512L519.905 219.997L527.312 222.512C529.343 229.822 530.906 237.254 531.991 244.762C532.89 250.462 533.698 256.558 534.414 262.73C535.404 271.143 536.227 279.708 536.928 287.724C538.026 300.663 538.757 312.108 539.153 319.103C539.382 323.492 539.504 326.144 539.504 326.144Z" fill="#FF3500"/>
<path d="M510.365 258.814C510.365 258.814 511.889 233.165 519.921 219.936C519.921 219.936 519.722 216.157 518.122 215.547C516.522 214.938 510.365 218.595 510.365 218.595C510.365 218.595 506.54 215.974 505.702 217.193C504.863 218.412 502.821 226.52 510.365 258.814Z" fill="#FF3500"/>
<path opacity="0.7" d="M510.365 258.814C510.365 258.814 511.889 233.165 519.921 219.936C519.921 219.936 519.722 216.157 518.122 215.547C516.522 214.938 510.365 218.595 510.365 218.595C510.365 218.595 506.54 215.974 505.702 217.193C504.863 218.412 502.821 226.52 510.365 258.814Z" fill="white"/>
<path d="M468.791 333.169L470.878 334.693C470.878 334.693 467.83 317.701 469.08 274.724C469.08 272.651 469.217 270.655 469.293 268.75C470.817 232.387 476.487 225.773 476.913 225.377L471.64 227.175L462.085 230.467C459.205 261.481 468.791 333.169 468.791 333.169Z" fill="#FF3500"/>
<path d="M469.613 262.486C469.613 262.486 464.34 237.554 465.91 228.958C467.48 220.363 473.103 224.188 473.103 224.188C473.103 224.188 478.27 220.013 479.809 224.615C479.809 224.615 472.707 229.614 469.613 262.486Z" fill="#FF3500"/>
<path opacity="0.7" d="M469.613 262.486C469.613 262.486 464.34 237.554 465.91 228.958C467.48 220.363 473.103 224.188 473.103 224.188C473.103 224.188 478.27 220.013 479.809 224.615C479.809 224.615 472.707 229.614 469.613 262.486Z" fill="white"/>
<path opacity="0.2" d="M534.383 262.669C526.581 258.296 525.544 246.881 525.544 246.881C526.017 246.698 528.912 245.707 531.96 244.701C532.859 250.401 533.667 256.497 534.383 262.669Z" fill="black"/>
<path opacity="0.2" d="M496.223 410.817L502.791 375.08L501.526 356.167C501.526 356.167 492.519 388.963 496.223 410.817Z" fill="black"/>
<path opacity="0.2" d="M539.123 319.042C534.216 318.707 529.979 318.387 529.979 318.387L529.049 298.438C530.579 297.48 532.415 297.142 534.185 297.493C535.391 294.306 536.304 291.015 536.913 287.663C537.98 300.602 538.727 312.062 539.123 319.042Z" fill="black"/>
<path d="M540.799 287.648L531.244 302.994L538.803 307.338L547.779 293.515L540.799 287.648Z" fill="#E4897B"/>
<path d="M526.901 222.268C533.332 222.969 560.672 260.49 561.876 271.798C563.08 283.106 545.813 302.629 545.813 302.629L534.292 295.847C534.292 295.847 545.996 277.848 546.606 272.987C547.215 268.125 525.194 248.481 525.194 248.481C523.528 243.955 522.612 239.189 522.481 234.369C522.176 226.109 526.901 222.268 526.901 222.268Z" fill="#FF3500"/>
<path d="M529.034 298.453C529.034 298.453 538.864 300.556 542.826 306.743C542.826 306.743 538.711 319.621 535.77 321.023C532.829 322.425 525.544 322.425 525.544 322.425C525.544 322.425 525.072 308.1 529.034 298.453Z" fill="#FF3500"/>
<rect x="201.124" y="244.693" width="87.1387" height="11.1241" rx="5.56204" fill="#D9D9D9"/>
</g>
</g>
<defs>
<filter id="filter0_d_28_3" x="-8.48828" y="527.098" width="650.977" height="94.5034" filterUnits="userSpaceOnUse" color-interpolation-filters="sRGB">
<feFlood flood-opacity="0" result="BackgroundImageFix"/>
<feColorMatrix in="SourceAlpha" type="matrix" values="0 0 0 0 0 0 0 0 0 0 0 0 0 0 0 0 0 0 127 0" result="hardAlpha"/>
<feOffset dy="4"/>
<feGaussianBlur stdDeviation="15"/>
<feComposite in2="hardAlpha" operator="out"/>
<feColorMatrix type="matrix" values="0 0 0 0 0 0 0 0 0 0 0 0 0 0 0 0 0 0 0.06 0"/>
<feBlend mode="normal" in2="BackgroundImageFix" result="effect1_dropShadow_28_3"/>
<feBlend mode="normal" in="SourceGraphic" in2="effect1_dropShadow_28_3" result="shape"/>
</filter>
<filter id="filter1_d_28_3" x="112.837" y="142.898" width="354.97" height="403.357" filterUnits="userSpaceOnUse" color-interpolation-filters="sRGB">
<feFlood flood-opacity="0" result="BackgroundImageFix"/>
<feColorMatrix in="SourceAlpha" type="matrix" values="0 0 0 0 0 0 0 0 0 0 0 0 0 0 0 0 0 0 127 0" result="hardAlpha"/>
<feOffset dy="4"/>
<feGaussianBlur stdDeviation="15"/>
<feComposite in2="hardAlpha" operator="out"/>
<feColorMatrix type="matrix" values="0 0 0 0 0 0 0 0 0 0 0 0 0 0 0 0 0 0 0.06 0"/>
<feBlend mode="normal" in2="BackgroundImageFix" result="effect1_dropShadow_28_3"/>
<feBlend mode="normal" in="SourceGraphic" in2="effect1_dropShadow_28_3" result="shape"/>
</filter>
<filter id="filter2_d_28_3" x="39.5781" y="395.834" width="146.213" height="209.248" filterUnits="userSpaceOnUse" color-interpolation-filters="sRGB">
<feFlood flood-opacity="0" result="BackgroundImageFix"/>
<feColorMatrix in="SourceAlpha" type="matrix" values="0 0 0 0 0 0 0 0 0 0 0 0 0 0 0 0 0 0 127 0" result="hardAlpha"/>
<feOffset dy="4"/>
<feGaussianBlur stdDeviation="15"/>
<feComposite in2="hardAlpha" operator="out"/>
<feColorMatrix type="matrix" values="0 0 0 0 0 0 0 0 0 0 0 0 0 0 0 0 0 0 0.06 0"/>
<feBlend mode="normal" in2="BackgroundImageFix" result="effect1_dropShadow_28_3"/>
<feBlend mode="normal" in="SourceGraphic" in2="effect1_dropShadow_28_3" result="shape"/>
</filter>
<filter id="filter3_d_28_3" x="456.24" y="61.3481" width="130.82" height="137.084" filterUnits="userSpaceOnUse" color-interpolation-filters="sRGB">
<feFlood flood-opacity="0" result="BackgroundImageFix"/>
<feColorMatrix in="SourceAlpha" type="matrix" values="0 0 0 0 0 0 0 0 0 0 0 0 0 0 0 0 0 0 127 0" result="hardAlpha"/>
<feOffset dy="4"/>
<feGaussianBlur stdDeviation="15"/>
<feComposite in2="hardAlpha" operator="out"/>
<feColorMatrix type="matrix" values="0 0 0 0 0 0 0 0 0 0 0 0 0 0 0 0 0 0 0.06 0"/>
<feBlend mode="normal" in2="BackgroundImageFix" result="effect1_dropShadow_28_3"/>
<feBlend mode="normal" in="SourceGraphic" in2="effect1_dropShadow_28_3" result="shape"/>
</filter>
<filter id="filter4_d_28_3" x="171.124" y="134.936" width="420.812" height="470.142" filterUnits="userSpaceOnUse" color-interpolation-filters="sRGB">
<feFlood flood-opacity="0" result="BackgroundImageFix"/>
<feColorMatrix in="SourceAlpha" type="matrix" values="0 0 0 0 0 0 0 0 0 0 0 0 0 0 0 0 0 0 127 0" result="hardAlpha"/>
<feOffset dy="4"/>
<feGaussianBlur stdDeviation="15"/>
<feComposite in2="hardAlpha" operator="out"/>
<feColorMatrix type="matrix" values="0 0 0 0 0 0 0 0 0 0 0 0 0 0 0 0 0 0 0.06 0"/>
<feBlend mode="normal" in2="BackgroundImageFix" result="effect1_dropShadow_28_3"/>
<feBlend mode="normal" in="SourceGraphic" in2="effect1_dropShadow_28_3" result="shape"/>
</filter>
<clipPath id="clip0_28_3">
<rect width="634" height="634" fill="white"/>
</clipPath>
</defs>
</svg>
