<svg width="584" height="322" viewBox="0 0 584 322" fill="none" xmlns="http://www.w3.org/2000/svg">
<g filter="url(#filter0_d_28_341)">
<path d="M162.943 28.6871C163.42 27.2029 164.234 25.8493 165.322 24.7327C166.409 23.6161 167.741 22.7669 169.212 22.2516C170.424 21.8428 171.817 21.5702 172.498 20.5103C172.878 19.6885 173.114 18.8075 173.195 17.9058C173.391 17.2462 173.718 16.6326 174.155 16.1014C174.593 15.5701 175.133 15.132 175.743 14.813C176.352 14.4939 177.02 14.3004 177.706 14.2438C178.392 14.1873 179.082 14.2688 179.736 14.4837C180.333 14.8145 180.984 15.0351 181.659 15.1348C184.43 15.1348 184.839 9.89559 187.61 10.0016C186.794 10.865 186.265 11.9599 186.096 13.136C186.028 13.721 186.159 14.3118 186.466 14.814C186.773 15.3163 187.24 15.7011 187.792 15.907C190.729 16.7096 192.138 11.0161 195.151 11.3644C196.786 11.5612 197.983 13.5903 199.588 13.2269C200.186 13.0102 200.74 12.687 201.223 12.2729C202.148 11.7364 203.243 11.5709 204.285 11.8098C205.328 12.0487 206.241 12.6742 206.841 13.56C207.795 15.0742 207.946 17.5121 209.703 17.9967C210.264 18.0628 210.833 18.0078 211.371 17.8354C211.909 17.663 212.404 17.3772 212.822 16.9973C213.537 18.511 213.895 20.1689 213.867 21.8428C215.565 22.023 217.127 22.8539 218.225 24.1611C219.323 25.4683 219.872 27.1502 219.757 28.8537C221.572 29.1197 223.317 29.7424 224.89 30.6859C225.673 31.1663 226.305 31.8567 226.714 32.6785C227.124 33.5003 227.295 34.4205 227.207 35.3345C227.087 35.7322 227.025 36.1455 227.025 36.5611C227.112 37.0052 227.316 37.4182 227.616 37.7573C228.824 38.9999 229.886 40.3767 230.781 41.8608C231.492 43.4508 231.174 45.7221 229.554 46.4035C229.176 46.5549 228.721 46.6306 228.509 46.9789C228.395 47.2658 228.395 47.5854 228.509 47.8723C228.954 49.04 229.583 50.1289 230.372 51.0976C231.157 52.081 231.541 53.3253 231.447 54.5803C231.235 55.822 229.933 56.8819 228.736 56.3368C230.024 57.851 231.326 59.3652 232.613 60.8795C233.385 61.788 234.127 62.9237 233.824 64.0593C233.325 65.5736 231.159 65.5736 229.842 64.8013C228.524 64.029 227.601 62.6208 226.253 61.7729C225.677 61.5117 225.129 61.192 224.618 60.8189C224.239 60.4706 223.936 60.0012 223.452 59.8952C222.468 59.653 221.938 61.152 222.407 62.0151C223.071 62.7754 223.938 63.3319 224.905 63.6202C225.829 64.0593 226.768 64.8316 226.692 65.831C226.692 66.3155 226.374 66.7547 226.344 67.2392C226.253 68.9352 228.812 69.2683 229.781 70.6462C230.054 71.2076 230.196 71.8238 230.196 72.4482C230.196 73.0725 230.054 73.6886 229.781 74.25C229.297 75.6734 227.798 77.3693 226.601 76.4457C226.177 76.1277 225.996 75.5674 225.617 75.204C225.125 74.8311 224.547 74.5865 223.936 74.4923C222.458 74.0534 221.138 73.1962 220.136 72.0241C221.983 72.8872 224.103 74.1743 224.088 76.2034C223.991 77.05 223.766 77.877 223.422 78.6564C222.907 80.1706 222.952 81.9575 222.452 83.5625C222.269 84.3718 221.832 85.1015 221.206 85.646C220.58 86.1905 219.797 86.5215 218.97 86.591C219.538 87.2061 219.883 87.9939 219.95 88.8284C220.017 89.6629 219.802 90.4957 219.34 91.1936C218.877 91.8915 218.194 92.4142 217.399 92.6778C216.605 92.9415 215.745 92.9309 214.957 92.6479C214.547 92.4378 214.099 92.3141 213.64 92.2844C213.15 92.3842 212.699 92.6205 212.337 92.9658C211.124 93.8337 209.694 94.3496 208.206 94.4565C206.717 94.5633 205.228 94.2571 203.903 93.5715L205.009 92.451C202.284 93.622 199.323 94.1405 196.362 93.9652C193.44 93.5413 190.563 91.2396 190.533 88.2869C190.533 87.015 190.941 85.4856 189.987 84.6225C189.619 84.3793 189.203 84.216 188.768 84.1429C188.332 84.0699 187.886 84.0888 187.459 84.1985L176.45 85.4856C174.689 85.8544 172.86 85.7286 171.166 85.1222C170.755 84.9544 170.381 84.7072 170.066 84.3948C169.751 84.0825 169.5 83.7111 169.329 83.3019C169.157 82.8926 169.068 82.4536 169.066 82.0099C169.064 81.5661 169.15 81.1264 169.318 80.7158C167.872 79.618 166.145 78.9513 164.337 78.7927C162.323 78.611 160.294 79.0804 158.28 79.0047C157.267 79.0434 156.264 78.8024 155.38 78.3082C154.496 77.814 153.765 77.0858 153.268 76.2034C152.495 74.3258 154.312 71.6607 156.205 72.4027C154.615 69.7982 149.664 72.009 147.922 69.4954C146.499 67.4512 148.755 64.9527 149.437 62.53C148.77 61.9091 147.741 61.788 147.044 61.1974C145.606 59.9255 146.484 57.533 147.665 56.0339C148.846 54.5349 150.391 52.8541 149.951 50.9916C149.512 49.1291 147.074 47.8571 147.256 45.9038C147.321 45.3632 147.588 44.8672 148.004 44.5159C148.42 44.1646 148.953 43.9842 149.497 44.011C149.209 40.2406 156.311 39.7107 156.614 35.9554C156.614 35.658 156.513 35.3694 156.326 35.1377C156.168 34.9319 155.959 34.7702 155.721 34.6683C154.559 34.2798 153.353 34.0357 152.132 33.9414C150.921 33.684 149.649 32.9118 149.527 31.7004C149.406 30.489 151.39 29.5502 151.905 30.6707C152.084 30.3016 152.346 29.9784 152.67 29.7258C152.993 29.4731 153.37 29.2978 153.772 29.2131C154.174 29.1283 154.589 29.1365 154.988 29.2369C155.386 29.3374 155.755 29.5274 156.069 29.7925C156.295 29.1643 156.729 28.6324 157.299 28.2852C157.87 27.9381 158.542 27.7967 159.203 27.8845C160.522 28.0966 161.772 28.6152 162.853 29.3988" fill="#263238"/>
<path d="M194.909 56.2157C191.623 52.2484 186.444 50.3254 181.371 49.4471C179.257 48.9462 177.051 48.9774 174.951 49.538C173.91 49.8393 172.98 50.4385 172.275 51.2618C171.57 52.085 171.121 53.0964 170.984 54.1715L172.907 57.1999C175.133 62.4846 181.281 64.771 185.611 68.5112C187.489 70.1465 189.442 72.2816 191.941 72.115C193.255 71.9526 194.462 71.3109 195.333 70.3131C198.876 66.6184 198.194 60.1981 194.909 56.2157Z" fill="#FF3500"/>
<path d="M207.552 79.5043C207.914 76.8272 207.324 74.1081 205.884 71.822C204.445 69.5359 202.248 67.8281 199.678 66.9969C200.284 63.6656 197.679 60.4403 194.56 59.1381C191.441 57.8358 187.928 58.0327 184.551 58.2295C181.859 55.3121 178.151 53.5383 174.19 53.2735C170.229 53.0086 166.317 54.273 163.261 56.8061C156.932 53.5051 148.952 56.7304 143.864 61.7274C142.719 63.0445 141.387 64.1872 139.912 65.1192C138.745 65.6393 137.546 66.0844 136.323 66.4517C129.736 68.9199 125.966 76.5213 126.632 83.5171C126.828 84.6264 126.874 85.7571 126.768 86.8786C126.363 88.2999 125.778 89.6636 125.027 90.9367C124.386 92.4015 124.067 93.9865 124.091 95.585C124.114 97.1836 124.48 98.7585 125.163 100.204C126.344 102.642 128.464 104.746 128.631 107.457C128.706 108.82 128.267 110.183 128.479 111.53C129.1 115.407 134.536 116.8 135.687 120.616C135.929 121.388 135.96 122.13 136.126 122.978C136.493 124.597 137.434 126.028 138.776 127.006C139.791 127.763 141.078 128.262 141.805 129.337C142.198 130.212 142.477 131.133 142.637 132.078C143.304 134.334 151.889 139.816 154.236 139.967L206.916 112.287C208.656 110.774 209.882 108.757 210.425 106.516C210.967 104.275 210.799 101.921 209.945 99.7798C209.569 99.1158 209.38 98.3621 209.399 97.5993C209.587 96.9688 209.907 96.3855 210.338 95.8882C212.731 92.2692 210.656 87.4237 208.249 83.7744C207.883 83.29 207.601 82.7474 207.416 82.1694C207.284 81.2808 207.33 80.3748 207.552 79.5043Z" fill="#263238"/>
<path d="M192.577 87.6509C189.821 82.6343 185.763 78.4544 180.83 75.5521C175.897 72.6498 170.272 71.1328 164.548 71.161C159.285 71.4508 154.135 72.8002 149.406 75.1283C144.901 77.0186 141.077 80.2349 138.443 84.3499C135.915 86.5909 130.524 101.96 135.627 112.787C141.305 124.795 148.755 139.24 154.812 147.19C167.168 163.089 181.75 157.956 181.75 157.956L188.246 171.403L206.417 186.817L222.634 160.379L226.162 154.67L192.577 87.6509Z" fill="#AE7461"/>
<path d="M178.116 130.776C177.733 130.223 177.217 129.776 176.616 129.475C176.015 129.175 175.348 129.03 174.676 129.056C174.004 129.082 173.35 129.276 172.773 129.622C172.197 129.968 171.717 130.453 171.377 131.033C170.499 132.548 171.075 134.213 172.15 135.833C173.391 136.5 174.421 137.242 175.723 136.742L176.329 136.485C177.307 136.002 178.069 135.17 178.464 134.153C178.666 133.6 178.739 133.009 178.679 132.424C178.619 131.839 178.426 131.275 178.116 130.776Z" fill="#6F4439"/>
<path d="M148.861 124.719C149.179 125.305 149.713 125.743 150.349 125.941C150.985 126.139 151.674 126.081 152.268 125.779C152.564 125.644 152.83 125.451 153.051 125.212C153.272 124.973 153.443 124.692 153.554 124.387C153.665 124.081 153.715 123.756 153.699 123.431C153.684 123.106 153.604 122.787 153.464 122.493C153.146 121.908 152.612 121.469 151.976 121.272C151.339 121.074 150.651 121.132 150.057 121.433C149.761 121.568 149.495 121.761 149.274 122C149.053 122.239 148.882 122.52 148.771 122.826C148.659 123.131 148.61 123.456 148.625 123.781C148.641 124.106 148.721 124.425 148.861 124.719Z" fill="#263238"/>
<path d="M143.334 117.269C143.773 117.405 144.848 115.225 147.18 113.908C149.512 112.59 152.011 112.817 152.102 112.393C152.102 112.196 151.587 111.818 150.512 111.682C149.078 111.536 147.634 111.837 146.378 112.545C145.123 113.226 144.116 114.286 143.501 115.573C143.077 116.542 143.122 117.209 143.334 117.269Z" fill="#263238"/>
<path d="M167.865 128.505C166.375 128.798 164.93 129.281 163.564 129.943C162.913 130.231 162.262 130.428 161.929 130.064C161.537 129.455 161.332 128.744 161.338 128.02C161.096 126.218 160.854 124.325 160.581 122.342C159.43 114.286 158.249 107.82 157.916 107.866C157.583 107.911 158.264 114.468 159.43 122.523C159.718 124.492 160.006 126.385 160.278 128.187C160.297 129.139 160.657 130.052 161.293 130.761C161.5 130.933 161.746 131.054 162.009 131.115C162.271 131.175 162.545 131.173 162.807 131.109C163.196 131.006 163.572 130.859 163.928 130.67C165.323 130.11 166.644 129.383 167.865 128.505Z" fill="#263238"/>
<path d="M181.795 157.911C190.088 153.504 196.996 146.884 201.753 138.786C201.753 138.786 202.298 154.489 183.961 162.469L181.795 157.911Z" fill="#6F4439"/>
<path d="M140.079 112.212C140.806 112.575 142.441 111.167 144.621 110.167C146.802 109.168 148.967 108.744 149.164 107.957C149.164 107.578 148.68 107.139 147.65 106.957C146.225 106.777 144.779 107.014 143.486 107.639C142.172 108.222 141.061 109.181 140.291 110.394C139.761 111.318 139.746 112.03 140.079 112.212Z" fill="#263238"/>
<path d="M175.557 111C175.864 111.592 175.926 112.28 175.731 112.917C175.535 113.554 175.098 114.089 174.512 114.407C174.235 114.576 173.926 114.687 173.605 114.735C173.284 114.783 172.957 114.766 172.642 114.686C172.328 114.605 172.032 114.463 171.774 114.267C171.515 114.071 171.298 113.825 171.135 113.544C170.831 112.954 170.769 112.268 170.961 111.632C171.153 110.996 171.585 110.46 172.165 110.137C172.443 109.966 172.753 109.853 173.075 109.803C173.398 109.754 173.727 109.77 174.044 109.851C174.36 109.931 174.657 110.075 174.917 110.272C175.177 110.469 175.395 110.717 175.557 111Z" fill="#263238"/>
<path d="M176.753 100.083C176.617 100.522 174.24 100.083 171.802 101.355C169.364 102.627 168.168 104.731 167.744 104.565C167.547 104.489 167.577 103.808 168.062 102.854C168.742 101.584 169.8 100.557 171.09 99.9161C172.365 99.268 173.813 99.0451 175.224 99.2801C176.299 99.477 176.814 99.8859 176.753 100.083Z" fill="#263238"/>
<path d="M171.65 90.6037C171.453 91.4062 169.273 91.7696 166.986 92.8902C164.7 94.0107 162.973 95.3735 162.231 95.0252C161.898 94.8435 161.913 94.1318 162.489 93.1778C163.314 91.9462 164.468 90.9705 165.82 90.3614C167.142 89.7083 168.625 89.4507 170.09 89.6194C171.181 89.786 171.741 90.2251 171.65 90.6037Z" fill="#263238"/>
<path d="M198.876 105.7C198.164 104.398 197.967 100.522 199.148 99.6435C202.267 97.2208 208.597 94.1015 213.442 102.763C220.06 114.589 206.81 118.798 206.598 118.48C206.386 118.162 201.329 110.183 198.876 105.7Z" fill="#AE7461"/>
<path d="M207.446 112.363C207.446 112.363 207.734 112.363 208.173 112.363C208.765 112.285 209.305 111.988 209.687 111.53C210.672 110.379 210.611 107.805 209.475 105.64C208.946 104.602 208.184 103.7 207.249 103.005C206.932 102.696 206.544 102.47 206.119 102.346C205.694 102.222 205.245 102.204 204.812 102.293C204.541 102.363 204.304 102.526 204.14 102.753C203.977 102.98 203.899 103.256 203.918 103.535C203.918 103.959 204.145 104.156 204.1 104.201C204.054 104.247 203.736 104.201 203.555 103.611C203.438 103.283 203.438 102.924 203.555 102.596C203.758 102.174 204.108 101.84 204.539 101.657C205.08 101.487 205.655 101.455 206.211 101.567C206.767 101.678 207.286 101.928 207.719 102.293C208.793 103.043 209.671 104.04 210.278 105.201C211.535 107.623 211.565 110.531 210.126 111.984C209.86 112.254 209.537 112.46 209.181 112.588C208.824 112.717 208.444 112.764 208.067 112.726C207.628 112.575 207.416 112.363 207.446 112.363Z" fill="#6F4439"/>
<path d="M133.098 114.392C133.941 113.155 134.415 111.705 134.466 110.209C134.517 108.713 134.142 107.234 133.385 105.943C135.233 105.549 135.717 102.611 135.899 100.719C136.081 98.8259 136.823 97.5085 135.899 95.8883C135.67 95.5896 135.528 95.2331 135.49 94.8586C135.49 94.2681 135.96 93.8138 136.368 93.3444C137.409 92.2368 138.156 90.8857 138.54 89.4148C138.923 87.9439 138.932 86.4003 138.564 84.9253C141.74 84.6303 144.794 83.5534 147.453 81.7909C148.563 82.3404 149.795 82.5999 151.033 82.5452C152.271 82.4905 153.475 82.1234 154.533 81.478C155.591 80.8326 156.469 79.93 157.084 78.8542C157.699 77.7784 158.032 76.5643 158.052 75.3252C158.851 75.8276 159.748 76.1525 160.684 76.2779C161.619 76.4032 162.57 76.3262 163.473 76.052C165.274 75.4858 166.983 74.6593 168.546 73.5989C169.126 75.3793 170.329 76.8907 171.934 77.8558C173.539 78.821 175.438 79.1751 177.283 78.8533C177.521 78.7491 177.779 78.6953 178.04 78.6953C178.3 78.6953 178.558 78.7491 178.797 78.8533C179.221 79.1561 179.266 79.7618 179.342 80.2767C179.483 81.089 179.789 81.8639 180.24 82.554C180.691 83.2441 181.279 83.8347 181.966 84.2898C182.654 84.7448 183.427 85.0547 184.239 85.2005C185.05 85.3462 185.883 85.3247 186.686 85.1373C186.452 85.7866 186.37 86.4806 186.445 87.1665C186.519 87.8524 186.749 88.5124 187.117 89.0962C187.485 89.68 187.981 90.1724 188.567 90.5359C189.154 90.8994 189.815 91.1245 190.502 91.1942C191.077 91.1942 191.804 91.1942 192.016 91.7545C192.069 91.9683 192.069 92.1918 192.016 92.4056C191.646 94.0505 191.746 95.7662 192.304 97.3571C192.616 98.1376 193.215 98.7688 193.979 99.1209C194.742 99.473 195.611 99.5191 196.407 99.2499C196.164 99.7855 196.031 100.365 196.018 100.953C196.005 101.541 196.112 102.126 196.332 102.672C196.459 102.932 196.644 103.159 196.872 103.336C197.101 103.514 197.366 103.637 197.649 103.697C197.932 103.757 198.225 103.752 198.506 103.682C198.786 103.612 199.048 103.479 199.269 103.293C199.587 102.914 204.857 98.4928 204.932 97.9931C205.78 91.5879 198.785 88.9077 195.332 83.396C191.761 77.9675 186.983 73.4381 181.371 70.1617C179.071 68.7106 176.592 67.5653 173.997 66.7547C170.993 66.0094 167.915 65.603 164.821 65.5433C160.797 65.1136 156.73 65.3489 152.783 66.2398C145.545 68.2538 140.154 74.25 135.702 80.3069C133.923 82.5467 132.456 85.0172 131.341 87.6509C130.238 90.9003 129.725 94.3208 129.827 97.7508C129.569 102.726 130.342 107.701 132.098 112.363" fill="#263238"/>
<path d="M128.48 111.53C128.394 110.988 128.394 110.437 128.48 109.895C128.48 109.365 128.616 108.714 128.631 107.926C128.64 107.039 128.454 106.16 128.086 105.352C127.612 104.334 127.055 103.356 126.42 102.43C125.643 101.329 125.022 100.126 124.573 98.8561C123.823 96.5482 123.823 94.0623 124.573 91.7544C124.881 90.918 125.255 90.1077 125.694 89.3317C126.142 88.5399 126.459 87.6808 126.632 86.7877C126.73 85.834 126.699 84.8715 126.542 83.9259C126.055 79.6119 127.13 75.2663 129.57 71.6758C130.226 70.7103 130.987 69.8215 131.841 69.0259C132.731 68.2197 133.718 67.5279 134.779 66.9666C135.32 66.6836 135.876 66.4308 136.445 66.2095C137.02 65.9975 137.61 65.8309 138.186 65.6341C139.356 65.2828 140.439 64.6895 141.366 63.8927C142.32 63.1053 143.153 62.1362 144.091 61.2731C145.036 60.3781 146.048 59.558 147.12 58.8201C148.221 58.0802 149.38 57.4319 150.587 56.8818C151.825 56.3338 153.113 55.9079 154.433 55.6099C157.152 54.9731 160.001 55.2061 162.58 56.2762L163.352 56.6244H163.125C164.683 55.2958 166.493 54.2967 168.448 53.6877C170.403 53.0787 172.46 52.8724 174.497 53.0812C178.417 53.3484 182.076 55.1425 184.688 58.0781L184.536 58.0024C186.325 57.8638 188.12 57.8385 189.912 57.9267C191.659 58.0046 193.378 58.3997 194.984 59.0926C196.506 59.8362 197.798 60.9766 198.725 62.3936C199.663 63.7431 200.043 65.4037 199.784 67.0271L199.663 66.8303C202.158 67.6187 204.3 69.2518 205.72 71.4487C207.044 73.3885 207.741 75.6873 207.719 78.0355C207.712 78.5731 207.666 79.1096 207.583 79.6406C207.474 80.1404 207.393 80.646 207.34 81.1549C207.295 81.6296 207.367 82.1083 207.552 82.5479C207.751 82.9732 207.989 83.3788 208.264 83.7593C209.218 85.1787 210.005 86.7029 210.611 88.302C211.105 89.6023 211.346 90.9846 211.323 92.3752C211.291 93.4069 211.021 94.4172 210.535 95.328C210.142 96.0699 209.687 96.5242 209.506 96.8422C209.4 97.033 209.318 97.2365 209.264 97.4479C209.283 97.2291 209.35 97.0172 209.46 96.827C209.627 96.4182 210.066 95.9488 210.445 95.222C210.904 94.3206 211.153 93.3264 211.171 92.3147C211.184 90.9468 210.932 89.5893 210.429 88.3171C209.821 86.7165 209.028 85.192 208.067 83.7744C207.79 83.3791 207.542 82.9641 207.325 82.5328C207.124 82.0548 207.041 81.5354 207.083 81.0185C207.083 80.4886 207.234 79.9889 207.31 79.5043C207.391 79.0035 207.437 78.4974 207.446 77.9901C207.449 75.7035 206.757 73.47 205.463 71.585C204.066 69.4582 201.973 67.8841 199.542 67.1332H199.391V66.9817C199.626 65.44 199.257 63.8671 198.361 62.5905C197.446 61.2423 196.186 60.165 194.712 59.4712C193.142 58.8024 191.465 58.4228 189.76 58.3506C187.984 58.2605 186.203 58.2909 184.43 58.4415H184.339V58.3658C181.677 55.4987 178.019 53.7576 174.115 53.4986C170.211 53.2396 166.355 54.4824 163.337 56.9727L163.231 57.0636H163.095L162.368 56.7305C159.866 55.6949 157.102 55.4672 154.464 56.0793C153.171 56.3764 151.909 56.792 150.693 57.321C149.511 57.87 148.372 58.5078 147.286 59.2289C146.214 59.9494 145.202 60.7545 144.258 61.6365C143.334 62.4845 142.486 63.4536 141.517 64.2713C141.047 64.6759 140.54 65.0359 140.003 65.3464C139.445 65.6387 138.862 65.8819 138.262 66.0732C137.671 66.27 137.096 66.4366 136.535 66.6486C135.976 66.8569 135.43 67.0997 134.9 67.3754C133.869 67.9165 132.912 68.5883 132.053 69.3742C131.214 70.1478 130.463 71.011 129.812 71.9484C128.58 73.7539 127.692 75.7713 127.193 77.8993C126.71 79.8801 126.582 81.9307 126.814 83.9561C126.943 84.9311 126.943 85.9188 126.814 86.8937C126.628 87.8188 126.296 88.7083 125.83 89.5285C125.389 90.2874 125.014 91.0827 124.709 91.9058C124.439 92.6901 124.261 93.5032 124.179 94.3286C124.008 95.8569 124.158 97.4041 124.618 98.8712C125.052 100.13 125.659 101.322 126.42 102.415C127.047 103.352 127.594 104.339 128.056 105.367C128.419 106.208 128.6 107.116 128.586 108.032C128.586 108.82 128.449 109.471 128.404 110.001C128.37 110.399 128.37 110.799 128.404 111.197C128.465 111.379 128.495 111.515 128.48 111.53Z" fill="#455A64"/>
<path d="M156.235 57.2454C155.857 57.2678 155.478 57.2678 155.1 57.2454C154.059 57.2864 153.033 57.512 152.071 57.9117C150.643 58.4666 149.396 59.4044 148.467 60.6221C147.342 62.1115 146.716 63.919 146.68 65.7856C146.663 66.3442 146.709 66.9029 146.817 67.4513C146.85 67.6971 146.936 67.9327 147.07 68.1419C147.203 68.3511 147.38 68.5288 147.589 68.6627L148.104 68.9049L147.559 69.0412C146.134 69.3735 144.896 70.248 144.106 71.4791C143.489 72.4693 143.207 73.6323 143.304 74.7952C143.36 75.5646 143.565 76.3156 143.909 77.006C144.152 77.4905 144.333 77.7329 144.303 77.748L144.152 77.5966C144.014 77.4318 143.892 77.2543 143.788 77.0666C143.375 76.3795 143.122 75.6085 143.046 74.8104C142.912 73.5864 143.183 72.3521 143.819 71.2974C144.64 69.9695 145.951 69.0178 147.468 68.6475V69.0261C147.198 68.865 146.968 68.6452 146.795 68.383C146.622 68.1209 146.511 67.8231 146.468 67.5118C146.35 66.9342 146.299 66.3447 146.317 65.7553C146.353 63.7947 147.022 61.8984 148.225 60.3495C149.209 59.1029 150.519 58.1541 152.011 57.6088C152.999 57.2227 154.053 57.0325 155.115 57.0486C155.404 57.0503 155.693 57.0756 155.978 57.1242C156.144 57.2151 156.235 57.2303 156.235 57.2454Z" fill="#455A64"/>
<path d="M183.022 60.3343C182.995 60.5595 182.934 60.7791 182.84 60.9854C182.613 61.5694 182.334 62.1319 182.007 62.6662C181.496 63.4705 180.82 64.157 180.024 64.6802C179.002 65.3396 177.77 65.5935 176.571 65.3918L176.813 65.2101C176.813 65.4372 176.813 65.6644 176.738 65.8915C176.662 66.1186 176.632 66.3458 176.586 66.588C176.232 67.8908 175.555 69.0834 174.618 70.0556C173.875 70.8601 172.979 71.5087 171.983 71.9636C171.315 72.2689 170.606 72.473 169.878 72.5692C169.613 72.6185 169.341 72.6185 169.076 72.5692C170.039 72.4098 170.977 72.1194 171.862 71.7061C172.803 71.2326 173.645 70.5852 174.345 69.7982C175.213 68.8537 175.846 67.7175 176.193 66.4821C176.193 66.2549 176.299 66.0429 176.329 65.8309C176.359 65.6189 176.329 65.3918 176.329 65.1798V64.9527H176.541C177.643 65.1391 178.775 64.9127 179.721 64.3167C180.492 63.8418 181.157 63.2129 181.674 62.4694C182.658 61.2277 182.946 60.3041 183.022 60.3343Z" fill="#455A64"/>
<path d="M195.347 67.9358C195.347 67.9358 195.347 67.9358 195.438 68.1629C195.474 68.4039 195.474 68.6488 195.438 68.8898C195.339 69.7864 194.907 70.6131 194.227 71.2065C193.196 72.0464 191.945 72.572 190.623 72.7207C189.896 72.8267 189.109 72.963 188.337 73.0084C187.468 73.1021 186.595 72.8877 185.868 72.4027L185.702 72.2513H186.02C185.439 73.7095 184.643 75.0723 183.658 76.2943C182.831 77.2994 181.74 78.0544 180.508 78.4748C179.68 78.7562 178.793 78.8188 177.934 78.6565C177.701 78.6116 177.473 78.5457 177.253 78.4596C177.116 78.4596 177.041 78.3536 177.041 78.3385C177.041 78.3233 177.374 78.4294 177.949 78.5051C178.779 78.6012 179.62 78.4974 180.402 78.2022C181.59 77.7783 182.639 77.0342 183.431 76.052C184.381 74.8501 185.147 73.5129 185.702 72.0847L185.823 71.8274L186.035 72.0242L186.186 72.1453C186.837 72.5658 187.613 72.7477 188.382 72.6602C189.133 72.6152 189.881 72.5293 190.623 72.4027C191.88 72.2883 193.081 71.827 194.091 71.0702C194.739 70.5275 195.182 69.7795 195.347 68.9503C195.375 68.6127 195.375 68.2734 195.347 67.9358Z" fill="#455A64"/>
<path d="M184.824 18.4812C184.824 18.4812 184.627 18.6023 184.324 18.89C183.894 19.2993 183.594 19.8258 183.461 20.4042C183.257 21.3406 183.38 22.3185 183.809 23.1753C184.395 24.2908 185.146 25.3117 186.035 26.2037L186.187 26.3703L185.975 26.4763C184.482 27.2435 183.28 28.4769 182.553 29.9893C182.127 30.8241 181.905 31.7477 181.905 32.6846C181.905 33.6215 182.127 34.5452 182.553 35.3799C182.923 36.1515 183.467 36.8267 184.142 37.3522C184.817 37.8777 185.605 38.2393 186.444 38.4084L187.02 38.5144L186.505 38.7869C185.658 39.2531 184.917 39.8892 184.328 40.6553C183.74 41.4214 183.315 42.3009 183.083 43.2387C182.706 44.7629 182.878 46.3709 183.567 47.7814C184.006 48.7013 184.63 49.5208 185.399 50.189C185.944 50.6433 186.293 50.8402 186.278 50.8704L186.02 50.7493C185.778 50.6131 185.546 50.4614 185.324 50.295C184.267 49.4799 183.465 48.3801 183.011 47.1247C182.558 45.8694 182.472 44.5107 182.765 43.2084C182.994 42.2175 183.429 41.286 184.042 40.4746C184.655 39.6632 185.432 38.9901 186.323 38.4992V38.8626C185.422 38.6909 184.574 38.3113 183.846 37.754C183.118 37.1967 182.53 36.4771 182.129 35.6525C181.65 34.7433 181.41 33.7272 181.432 32.6998C181.455 31.723 181.687 30.7626 182.113 29.8833C182.888 28.3037 184.159 27.0218 185.732 26.234V26.5066C184.83 25.5915 184.078 24.5385 183.507 23.3873C183.078 22.475 182.977 21.4431 183.219 20.4648C183.373 19.8408 183.717 19.28 184.203 18.8598C184.332 18.7506 184.474 18.6589 184.627 18.5872L184.824 18.4812Z" fill="#455A64"/>
<path d="M220.166 32.624C220.166 32.624 220.166 32.7149 220.044 32.8511C219.906 33.0576 219.754 33.2549 219.59 33.4417C218.989 34.1616 218.285 34.7891 217.501 35.3042C216.293 36.0966 214.939 36.6374 213.518 36.8941C211.697 37.2575 209.81 37.1108 208.067 36.4702L208.324 36.3036C208.289 37.5829 207.971 38.8385 207.392 39.9801C206.813 41.1216 205.989 42.1208 204.978 42.9056C203.881 43.7039 202.563 44.1415 201.207 44.1578C199.85 44.174 198.522 43.7682 197.407 42.9965L197.71 42.8148C197.849 43.7616 197.734 44.7283 197.377 45.6161C197.067 46.4172 196.616 47.1558 196.044 47.7965C195.079 48.8124 193.914 49.6168 192.622 50.1587C191.798 50.5213 190.948 50.8199 190.078 51.0521C189.777 51.1702 189.461 51.2466 189.139 51.2793C189.434 51.1484 189.738 51.0372 190.048 50.9461C190.623 50.7341 191.486 50.4313 192.531 49.9467C193.767 49.3838 194.879 48.5808 195.802 47.5845C196.381 46.9563 196.816 46.2097 197.077 45.3966C197.339 44.5834 197.42 43.7231 197.316 42.8753L197.24 42.4059L197.619 42.6936C198.678 43.4256 199.94 43.8076 201.227 43.7859C202.514 43.7642 203.762 43.3398 204.796 42.5725C205.76 41.8253 206.548 40.8748 207.103 39.7887C207.657 38.7025 207.966 37.5075 208.006 36.2885V36.0159L208.249 36.1219C209.928 36.7418 211.742 36.8987 213.503 36.5762C214.897 36.3352 216.23 35.8206 217.425 35.0619C218.454 34.39 219.378 33.5683 220.166 32.624Z" fill="#455A64"/>
<path d="M217.228 56.8668C217.228 56.8668 217.228 56.9577 217.228 57.1545C217.123 57.4208 216.945 57.6518 216.714 57.8208C215.86 58.3911 214.875 58.735 213.852 58.8202C212.324 59.0007 210.778 58.6989 209.43 57.9571C207.783 57.0224 206.545 55.5042 205.963 53.7021H206.326C205.25 55.2403 203.704 56.388 201.92 56.9728C200.46 57.4697 198.903 57.6149 197.377 57.3968C196.374 57.2692 195.395 56.999 194.47 56.5943C194.12 56.4723 193.792 56.2932 193.5 56.0643C194.757 56.5817 196.075 56.933 197.422 57.1091C198.875 57.2638 200.344 57.0931 201.723 56.6094C203.417 56.0341 204.885 54.9368 205.917 53.4749L206.144 53.1418L206.281 53.5355C206.774 55.0881 207.783 56.4254 209.141 57.3259C210.499 58.2264 212.123 58.6361 213.746 58.487C214.73 58.4243 215.688 58.1395 216.547 57.6542C216.86 57.4805 217.101 57.2016 217.228 56.8668Z" fill="#455A64"/>
<path d="M159.067 33.1541C159.317 34.5555 159.831 35.8966 160.581 37.1062C161.397 38.3974 162.508 39.4768 163.822 40.2558C165.447 41.1691 167.307 41.5801 169.167 41.4369C170.241 41.3638 171.292 41.0971 172.271 40.6495L172.498 40.5435V40.7857C172.789 42.2418 173.355 43.6291 174.164 44.8741C174.812 45.8635 175.597 46.7557 176.496 47.524C176.83 47.8108 177.184 48.0739 177.556 48.3114C177.683 48.4027 177.831 48.4626 177.986 48.4863C178.141 48.51 178.3 48.4968 178.449 48.4477C178.543 48.4147 178.629 48.3607 178.7 48.2899C178.771 48.2192 178.825 48.1333 178.858 48.0388C178.858 47.9177 178.858 47.842 178.858 47.842C178.858 47.842 178.858 47.842 178.858 48.054C178.837 48.1686 178.789 48.2766 178.718 48.3689C178.647 48.4611 178.555 48.5349 178.449 48.584C178.28 48.6503 178.097 48.6766 177.916 48.6609C177.735 48.6451 177.56 48.5877 177.404 48.4931C177.005 48.2671 176.625 48.0088 176.268 47.7209C175.318 46.9641 174.491 46.0652 173.815 45.0558C172.957 43.7923 172.355 42.3723 172.044 40.8766L172.316 41.0129C171.295 41.4826 170.197 41.7647 169.076 41.8457C167.32 42.0079 165.555 41.6668 163.986 40.8623C162.418 40.0578 161.11 38.8233 160.218 37.303C159.683 36.3931 159.304 35.4002 159.097 34.3654C159.097 33.9869 159.006 33.7143 158.991 33.5175C158.992 33.3925 159.018 33.2691 159.067 33.1541Z" fill="#455A64"/>
<path d="M176.283 127.505C175.89 127.611 176.662 130.095 175.087 132.532C173.512 134.97 170.757 135.561 170.847 135.879C170.938 136.197 171.589 136.182 172.71 135.879C174.181 135.446 175.452 134.507 176.299 133.229C177.108 132.002 177.412 130.51 177.147 129.065C176.919 127.914 176.45 127.384 176.283 127.505Z" fill="#263238"/>
<path d="M187.988 170.327C187.988 170.327 198.724 241.072 211.565 253.383C225.374 266.632 250.193 273.158 250.193 273.158C250.193 273.158 283.218 286.226 294.696 283.379L315.44 212.211C315.103 210.978 314.368 209.891 313.35 209.118C312.331 208.346 311.086 207.932 309.807 207.941C307.748 207.865 301.828 210.636 299.132 209.985C288.381 207.396 263.185 168.844 263.185 168.844C263.185 168.844 239.245 135.833 218.833 138.817C204.842 140.861 199.042 147.084 193.773 161.197C192.501 164.596 190.53 167.691 187.988 170.282V170.327Z" fill="#FF3500"/>
<path d="M187.989 170.327L178.676 217.465L135.642 205.23L128.222 230.366L201.026 263.24L215.351 203.64L187.989 170.327Z" fill="#FF3500"/>
<path d="M285.338 253.473C285.141 253.398 288.367 244.57 292.41 233.788C296.453 223.007 299.981 214.285 300.223 214.361C300.465 214.437 297.195 223.265 293.152 234.046C289.109 244.827 285.535 253.549 285.338 253.473Z" fill="#263238"/>
<path d="M284.535 243.586C286.916 235.575 289.809 227.725 293.197 220.085C292.118 224.124 290.793 228.094 289.229 231.971C287.901 235.934 286.334 239.813 284.535 243.586Z" fill="#263238"/>
<path d="M186.868 183.955C187.281 187.621 187.493 191.306 187.504 194.994C187.625 198.023 187.746 200.778 187.867 202.777C188.014 203.846 188.055 204.926 187.988 206.003C187.609 204.982 187.385 203.91 187.322 202.823C187.05 200.839 186.838 198.068 186.716 195.024C186.595 191.981 186.58 189.195 186.626 187.196C186.574 186.11 186.655 185.022 186.868 183.955Z" fill="#263238"/>
<g opacity="0.3">
<path d="M163.17 246.145L179.206 239.179L187.989 208.077L182.022 246.387L170.196 249.324L163.17 246.145Z" fill="black"/>
</g>
<g opacity="0.3">
<path d="M297.028 220.433C296.475 220.176 295.853 220.109 295.258 220.244C294.664 220.378 294.13 220.705 293.742 221.175C292.909 222.159 292.277 223.295 291.879 224.522C288.72 232.527 285.55 240.567 282.37 248.643C281.827 249.765 281.557 251 281.583 252.247C281.719 253.489 282.688 254.715 283.809 254.549C284.929 254.382 285.474 253.231 285.944 252.201C290.482 241.981 294.331 231.47 297.467 220.736" fill="black"/>
</g>
<path d="M68.9858 211.545C68.9858 211.545 74.7853 203.792 78.1923 202.141C80.9028 200.824 97.0292 197.977 98.9977 198.356C100.966 198.734 135.642 206.336 135.642 206.336L131.099 221.478L128.873 220.448C128.873 220.448 121.878 223.961 116.532 222.28C112.257 220.635 108.191 218.49 104.419 215.89L99.6488 217.677C99.6488 217.677 104.888 219.328 105.282 221.493C105.675 223.658 102.692 223.901 102.692 223.901L102.48 224.855C102.299 225.657 101.811 226.356 101.12 226.803C100.43 227.251 99.592 227.41 98.7857 227.247C95.7573 226.641 91.2146 225.581 90.2758 224.491C89.867 224.037 87.7622 220.161 87.7622 220.161C84.5066 217.874 84.5672 215.618 84.7338 214.225C85.0972 211.439 88.0499 208.334 88.0499 208.334L82.1899 208.017C82.1899 208.017 72.7714 217.677 68.9858 211.545Z" fill="#AE7461"/>
<path d="M117.714 209.001C110.673 209.001 103.98 208.062 98.7404 209.364C97.3365 209.627 96.0321 210.272 94.97 211.227C94.4469 211.714 94.0929 212.356 93.9594 213.058C93.826 213.761 93.9201 214.488 94.228 215.133C94.579 215.634 95.0463 216.041 95.5897 216.321C96.1331 216.6 96.7363 216.744 97.3474 216.738C98.5587 216.738 99.7701 216.557 100.997 216.526C103.941 216.645 106.806 217.51 109.325 219.04C111.839 220.556 114.542 221.732 117.365 222.538C120.227 223.159 126.966 222.614 128.934 220.448" fill="#AE7461"/>
<path d="M128.934 220.448C128.934 220.448 128.813 220.645 128.495 220.948C127.991 221.344 127.429 221.66 126.829 221.887C124.635 222.678 122.317 223.073 119.985 223.053C118.354 223.085 116.731 222.813 115.2 222.25C113.476 221.588 111.801 220.803 110.188 219.903C108.454 218.92 106.628 218.109 104.737 217.48C103.755 217.166 102.737 216.977 101.708 216.92C100.62 216.921 99.533 216.987 98.4527 217.117C97.2722 217.257 96.0772 217.029 95.0305 216.466C94.4919 216.164 94.0582 215.706 93.7875 215.151C93.5169 214.596 93.4223 213.972 93.5163 213.362C93.679 212.232 94.2767 211.21 95.182 210.515C96.0231 209.901 96.974 209.454 97.9833 209.198C101.352 208.42 104.819 208.165 108.265 208.44L115.17 208.804C116.021 208.807 116.872 208.873 117.714 209.001C117.496 209.058 117.272 209.084 117.047 209.076C116.623 209.076 115.987 209.076 115.17 209.076C113.534 209.076 111.172 209.076 108.25 208.94C104.867 208.763 101.476 209.069 98.1801 209.849C97.2709 210.096 96.4142 210.507 95.6514 211.06C94.9027 211.636 94.4127 212.486 94.2886 213.422C94.2183 213.878 94.2895 214.345 94.4925 214.759C94.6956 215.173 95.0208 215.515 95.4242 215.739C96.3512 216.235 97.411 216.425 98.4527 216.284C99.5586 216.156 100.671 216.091 101.784 216.087C102.885 216.156 103.973 216.359 105.024 216.693C106.96 217.352 108.826 218.199 110.597 219.222C113.958 221.084 117.123 222.568 120.045 222.447C122.325 222.514 124.6 222.212 126.784 221.554C127.556 221.305 128.282 220.931 128.934 220.448Z" fill="#6F4439"/>
<path d="M95.1971 207.365C95.1971 207.456 94.5308 207.789 93.3497 208.001C91.8487 208.259 90.33 208.401 88.8071 208.425C86.6233 208.606 84.4249 208.468 82.2808 208.016C84.4343 207.685 86.6145 207.558 88.7919 207.638C90.5787 207.638 92.1989 207.532 93.3346 207.456C93.9494 207.35 94.5749 207.32 95.1971 207.365Z" fill="#6F4439"/>
<path d="M102.935 223.916C100.214 224.352 97.4313 224.218 94.7647 223.522C92.098 222.826 89.6051 221.584 87.4443 219.873C89.9045 221 92.4332 221.971 95.0154 222.78C97.6311 223.312 100.275 223.691 102.935 223.916Z" fill="#6F4439"/>
<path d="M93.2588 216.012C94.4189 215.782 95.6199 215.882 96.7264 216.299C97.9022 216.457 99.0124 216.933 99.9365 217.677C98.7782 217.671 97.6299 217.461 96.5446 217.056C95.3974 216.9 94.2857 216.546 93.2588 216.012Z" fill="#6F4439"/>
<path d="M22.0298 227.898L60.2336 209.273C60.5402 209.121 60.8823 209.055 61.2236 209.081C61.565 209.108 61.8926 209.227 62.1718 209.425L104.176 236.121C104.415 236.283 104.616 236.494 104.767 236.74C104.918 236.985 105.015 237.26 105.053 237.546C105.09 237.832 105.066 238.123 104.983 238.399C104.9 238.676 104.759 238.931 104.57 239.149L82.3716 268.737L22.0298 227.898Z" fill="#263238"/>
<path d="M26.7998 229.261L78.2228 263.119L101.572 237.074L61.0969 211.938L26.7998 229.261Z" fill="white"/>
<path d="M46.7875 219.176L90.9271 248.961L78.2228 263.119L26.7998 229.261L46.7875 219.176Z" fill="#E0E0E0"/>
<path d="M69.349 220.054L62.5956 225.536C62.488 225.63 62.3625 225.7 62.2266 225.743C62.0908 225.787 61.9476 225.802 61.8057 225.787C61.6639 225.773 61.5265 225.73 61.4019 225.661C61.2773 225.592 61.1682 225.498 61.0813 225.385C60.9878 225.277 60.9172 225.151 60.8739 225.016C60.8307 224.88 60.8157 224.737 60.8299 224.595C60.8441 224.453 60.8871 224.315 60.9564 224.191C61.0257 224.066 61.1197 223.957 61.2328 223.87L67.9862 218.389C68.0937 218.295 68.2193 218.225 68.3551 218.181C68.4909 218.138 68.6342 218.123 68.776 218.137C68.9179 218.152 69.0553 218.195 69.1799 218.264C69.3045 218.333 69.4135 218.427 69.5004 218.54C69.592 218.649 69.6608 218.774 69.7028 218.91C69.7449 219.046 69.7592 219.188 69.7451 219.329C69.731 219.471 69.6887 219.608 69.6206 219.732C69.5526 219.857 69.4602 219.966 69.349 220.054Z" fill="#E0E0E0"/>
<path d="M72.3929 222.538L65.6547 228.019C65.5471 228.113 65.4216 228.183 65.2857 228.227C65.1499 228.27 65.0067 228.285 64.8648 228.271C64.723 228.257 64.5855 228.214 64.461 228.144C64.3364 228.075 64.2273 227.981 64.1404 227.868C64.0469 227.76 63.9763 227.635 63.933 227.499C63.8898 227.363 63.8748 227.22 63.889 227.078C63.9032 226.936 63.9462 226.799 64.0155 226.674C64.0848 226.55 64.1788 226.441 64.2918 226.354L71.0453 220.872C71.1518 220.776 71.2772 220.704 71.4133 220.66C71.5494 220.615 71.6933 220.599 71.8358 220.614C71.9783 220.628 72.1163 220.672 72.2409 220.742C72.3655 220.813 72.474 220.909 72.5595 221.024C72.6523 221.132 72.7218 221.258 72.7638 221.395C72.8059 221.531 72.8195 221.675 72.8039 221.817C72.7883 221.959 72.7438 222.096 72.6731 222.22C72.6024 222.344 72.5071 222.452 72.3929 222.538Z" fill="#E0E0E0"/>
<path d="M75.6633 225.445L68.9098 230.927C68.8043 231.025 68.6792 231.099 68.5428 231.145C68.4064 231.191 68.2618 231.207 68.1185 231.193C67.9753 231.178 67.8368 231.134 67.7121 231.062C67.5875 230.99 67.4796 230.892 67.3956 230.775C67.2977 230.67 67.2233 230.545 67.1774 230.408C67.1315 230.272 67.1152 230.127 67.1295 229.984C67.1439 229.841 67.1885 229.702 67.2605 229.578C67.3325 229.453 67.4301 229.345 67.547 229.261L74.2853 223.764C74.3928 223.671 74.5184 223.6 74.6542 223.557C74.79 223.514 74.9333 223.499 75.0751 223.513C75.217 223.527 75.3544 223.57 75.479 223.639C75.6036 223.709 75.7127 223.803 75.7995 223.916C75.8964 224.023 75.9701 224.148 76.016 224.285C76.0619 224.422 76.079 224.567 76.0662 224.71C76.0534 224.854 76.011 224.993 75.9416 225.12C75.8723 225.246 75.7775 225.357 75.6633 225.445Z" fill="#E0E0E0"/>
<path d="M77.011 229.397L73.18 232.517C73.0716 232.608 72.9458 232.677 72.8103 232.719C72.6747 232.761 72.5321 232.775 72.3909 232.761C72.2497 232.747 72.1127 232.705 71.9882 232.637C71.8636 232.569 71.754 232.476 71.6658 232.365C71.5722 232.258 71.5017 232.132 71.4584 231.996C71.4152 231.86 71.4002 231.717 71.4144 231.575C71.4285 231.434 71.4716 231.296 71.5409 231.171C71.6102 231.047 71.7042 230.938 71.8172 230.851L75.6482 227.732C75.7567 227.64 75.8824 227.571 76.018 227.529C76.1535 227.487 76.2961 227.473 76.4374 227.487C76.5786 227.501 76.7155 227.543 76.8401 227.611C76.9646 227.68 77.0743 227.772 77.1624 227.883C77.256 227.991 77.3266 228.116 77.3698 228.252C77.4131 228.388 77.4281 228.531 77.4139 228.673C77.3997 228.815 77.3566 228.952 77.2874 229.077C77.2181 229.201 77.124 229.31 77.011 229.397Z" fill="#E0E0E0"/>
<path d="M63.6709 219.131L59.2191 222.25C59.1058 222.341 58.9746 222.406 58.8342 222.442C58.6938 222.478 58.5473 222.485 58.4044 222.46C58.2614 222.436 58.1252 222.382 58.0047 222.301C57.8842 222.221 57.782 222.116 57.7049 221.993C57.6269 221.882 57.5716 221.756 57.5423 221.623C57.513 221.491 57.5102 221.354 57.5342 221.22C57.5581 221.086 57.6082 220.958 57.6817 220.844C57.7552 220.73 57.8506 220.631 57.9623 220.554L62.4444 217.42C62.5595 217.334 62.6908 217.272 62.8304 217.238C62.9701 217.205 63.1151 217.2 63.2567 217.224C63.3983 217.248 63.5336 217.3 63.6542 217.378C63.7749 217.456 63.8785 217.558 63.9586 217.677C64.0356 217.791 64.0892 217.92 64.1164 218.055C64.1436 218.19 64.1438 218.329 64.1171 218.464C64.0903 218.599 64.0371 218.727 63.9606 218.842C63.884 218.956 63.7856 219.055 63.6709 219.131Z" fill="#FF3500"/>
<path d="M86.6717 234.061L82.8255 237.907C82.7291 238.012 82.612 238.095 82.4817 238.152C82.3514 238.21 82.2107 238.239 82.0684 238.239C81.9261 238.239 81.7854 238.21 81.6551 238.152C81.5248 238.095 81.4077 238.012 81.3113 237.907C81.2067 237.811 81.1232 237.694 81.0661 237.563C81.009 237.433 80.9795 237.292 80.9795 237.15C80.9795 237.008 81.009 236.867 81.0661 236.737C81.1232 236.606 81.2067 236.489 81.3113 236.393L85.1574 232.592C85.2539 232.488 85.3709 232.404 85.5012 232.347C85.6315 232.29 85.7723 232.26 85.9145 232.26C86.0568 232.26 86.1976 232.29 86.3279 232.347C86.4582 232.404 86.5752 232.488 86.6717 232.592C86.7692 232.688 86.8466 232.802 86.8995 232.929C86.9524 233.055 86.9796 233.19 86.9796 233.327C86.9796 233.463 86.9524 233.599 86.8995 233.725C86.8466 233.851 86.7692 233.965 86.6717 234.061Z" fill="#FF3500"/>
<path d="M82.3715 268.737C82.133 269.111 81.8231 269.434 81.4595 269.688C81.096 269.942 80.686 270.122 80.2529 270.218C79.8198 270.313 79.3721 270.323 78.9354 270.245C78.4987 270.168 78.0815 270.005 77.7077 269.766L21.5603 233.834C21.1865 233.595 20.8632 233.285 20.6091 232.922C20.355 232.558 20.175 232.148 20.0794 231.715C19.9838 231.282 19.9744 230.835 20.0519 230.398C20.1293 229.961 20.292 229.544 20.5307 229.17C21.0149 228.418 21.7781 227.888 22.6526 227.698C23.5271 227.507 24.4414 227.672 25.1945 228.156L81.3419 264.073C81.7157 264.312 82.039 264.621 82.2931 264.985C82.5472 265.348 82.7272 265.758 82.8228 266.192C82.9184 266.625 82.9278 267.072 82.8503 267.509C82.7729 267.946 82.6102 268.363 82.3715 268.737Z" fill="#263238"/>
<path d="M513.683 158.607L515.318 118.602C515.318 118.602 556.278 109.728 557.292 102.369L480.067 93.4958L474.964 155.746L513.683 158.607Z" fill="#455A64"/>
<g opacity="0.6">
<path d="M491.09 120.116C490.362 119.83 489.765 119.286 489.413 118.587C489.062 117.889 488.979 117.085 489.182 116.33C489.435 115.591 489.964 114.978 490.658 114.62C491.353 114.262 492.158 114.185 492.907 114.407C493.679 114.71 494.311 115.287 494.682 116.028C495.054 116.769 495.139 117.62 494.921 118.42C494.561 119.149 493.935 119.713 493.171 119.995C492.408 120.276 491.566 120.255 490.818 119.934" fill="white"/>
</g>
<path d="M480.082 93.4958L479.567 99.7799L554.415 105.731C555.249 105.41 555.988 104.885 556.567 104.206C557.146 103.526 557.547 102.713 557.732 101.839L480.082 93.4958Z" fill="#263238"/>
<path d="M516.53 119.086C516.53 118.708 514.667 118.39 512.911 117.042C511.154 115.694 510.261 114.013 509.882 114.135C509.504 114.256 509.882 116.482 512.078 118.087C514.273 119.692 516.59 119.45 516.53 119.086Z" fill="#263238"/>
<path d="M524.918 116.361C525.024 115.997 523.404 115.225 522.283 113.529C521.163 111.833 520.875 110.107 520.497 110.092C520.118 110.076 519.709 112.196 521.208 114.286C522.707 116.376 524.873 116.709 524.918 116.361Z" fill="#263238"/>
<path d="M530.339 106.988C530.006 106.882 529.325 108.729 530.142 110.879C530.96 113.029 532.656 113.983 532.838 113.68C533.019 113.377 532.02 112.166 531.323 110.41C530.627 108.653 530.657 107.048 530.339 106.988Z" fill="#263238"/>
<path d="M515.197 128.171C515.06 127.808 513.289 128.171 511.154 127.884C509.019 127.596 507.414 126.778 507.202 127.081C506.99 127.384 508.474 128.868 510.987 129.201C513.501 129.534 515.318 128.474 515.197 128.171Z" fill="#263238"/>
<g opacity="0.3">
<path d="M513.683 158.607L515.318 118.602C515.318 118.602 556.278 109.728 557.292 102.369L480.067 93.4958L474.964 155.746L513.683 158.607Z" fill="black"/>
</g>
<path d="M520.163 129.262C519.543 130.519 514.894 246.675 514.894 246.675L474.903 230.896C470.304 221.143 468.296 210.368 469.074 199.613C470.315 181.533 480.915 126.052 480.915 126.052L520.163 129.262Z" fill="#263238"/>
<path d="M509.489 161.151L490.167 126.082C490.167 126.082 520.588 97.3117 517.65 90.4523L447.057 122.872L474.949 178.747L509.489 161.151Z" fill="#455A64"/>
<g opacity="0.6">
<path d="M470.24 139.922C469.47 140.06 468.676 139.908 468.013 139.494C467.35 139.079 466.864 138.433 466.651 137.681C466.484 136.919 466.618 136.122 467.024 135.457C467.43 134.791 468.078 134.308 468.831 134.107C469.649 133.964 470.49 134.129 471.193 134.571C471.895 135.013 472.408 135.701 472.632 136.5C472.719 137.314 472.486 138.13 471.984 138.777C471.481 139.424 470.747 139.85 469.937 139.967" fill="white"/>
</g>
<path d="M447.057 122.872L449.874 128.505L516.969 94.8131C517.516 94.1084 517.879 93.2781 518.025 92.3976C518.17 91.517 518.094 90.6141 517.802 89.7708L447.057 122.872Z" fill="#263238"/>
<path d="M491.469 125.87C491.287 125.537 489.516 126.233 487.29 125.991C485.064 125.749 483.474 124.764 483.232 125.067C482.989 125.37 484.473 127.051 487.169 127.308C489.864 127.566 491.696 126.142 491.469 125.87Z" fill="#263238"/>
<path d="M497.223 119.192C497.132 118.814 495.376 118.98 493.498 118.132C491.62 117.284 490.469 115.937 490.197 116.118C489.924 116.3 490.621 118.329 492.968 119.344C495.315 120.358 497.374 119.51 497.223 119.192Z" fill="#263238"/>
<path d="M497.026 108.396C496.678 108.471 497.026 110.41 498.874 111.818C500.721 113.226 502.629 113.181 502.629 112.817C502.629 112.454 501.115 111.969 499.691 110.788C498.268 109.607 497.299 108.26 497.026 108.396Z" fill="#263238"/>
<path d="M494.982 134.35C494.679 134.107 493.362 135.364 491.393 136.197C489.425 137.03 487.608 137.196 487.577 137.575C487.547 137.953 489.591 138.438 491.908 137.408C494.225 136.379 495.285 134.531 494.982 134.35Z" fill="#263238"/>
<g opacity="0.3">
<path d="M505.658 154.216L502.22 147.962L468.302 165.497L471.149 171.251L505.658 154.216Z" fill="black"/>
</g>
<path d="M315.441 212.211L326.631 208.652C326.631 208.652 347.194 192.132 370.271 194.313C384.901 195.928 399.082 200.355 412.033 207.35L436.033 220.494L497.738 237.014L462.199 153.247L497.284 138.695C497.284 138.695 532.353 195.176 542.953 211.075C553.552 226.974 561.608 243.025 562.865 256.123C564.121 269.221 554.264 287.543 527.144 290.663C500.024 293.782 383.959 286.029 383.959 286.029L294.62 283.455L315.441 212.211Z" fill="#263238"/>
<path d="M315.441 212.211C315.441 212.211 315.335 212.635 315.108 213.437C314.88 214.24 314.547 215.466 314.093 217.041C313.185 220.221 311.837 224.9 310.08 230.987C306.567 243.101 301.419 260.939 294.938 283.44L294.726 283.152L358.672 284.984C382.748 285.257 409.323 287.468 437.972 288.785C452.296 289.482 467.136 290.148 482.414 290.602C489.985 290.799 497.829 290.981 505.688 290.996C509.609 290.996 513.577 290.996 517.544 290.844C519.528 290.844 521.526 290.738 523.51 290.542C525.509 290.444 527.501 290.231 529.476 289.906C537.557 288.876 545.194 285.627 551.538 280.517C554.742 277.923 557.375 274.694 559.269 271.032C561.164 267.371 562.28 263.357 562.547 259.243C562.607 258.209 562.607 257.172 562.547 256.138C562.41 255.094 562.32 254.049 562.123 253.019C561.781 250.948 561.311 248.9 560.714 246.887C559.496 242.808 557.977 238.825 556.172 234.97C552.514 227.165 548.273 219.648 543.483 212.483C535.23 199.991 527.402 187.453 519.664 175.158L496.951 138.816L497.435 138.968L462.335 153.504L462.547 153.005L498.041 236.878L498.313 237.498L497.647 237.332L435.958 220.781L417.454 210.621C414.425 209.016 411.624 207.335 408.732 205.896C405.84 204.458 402.932 203.171 400.055 202.02C389.689 197.755 378.699 195.198 367.515 194.449C362.845 194.334 358.18 194.844 353.645 195.963C349.74 196.934 345.925 198.235 342.242 199.855C336.749 202.238 331.55 205.251 326.752 208.834L318.303 211.469L315.532 212.302L318.242 211.393L326.691 208.652C331.486 205.035 336.684 201.986 342.182 199.567C345.874 197.926 349.699 196.599 353.614 195.6C358.187 194.486 362.886 193.977 367.591 194.086C378.831 194.822 389.877 197.379 400.298 201.657C403.185 202.808 406.092 204.095 409.02 205.518C411.942 207.032 414.804 208.652 417.772 210.242L436.291 220.372L498.01 236.847L497.617 237.302L462.048 153.474L461.896 153.126L462.245 152.974L497.329 138.423L497.632 138.302L497.814 138.574L520.527 174.916C528.28 187.211 536.108 199.749 544.346 212.226C549.168 219.414 553.43 226.962 557.095 234.803C558.903 238.694 560.421 242.712 561.638 246.826C562.241 248.874 562.716 250.958 563.061 253.065C563.273 254.109 563.364 255.169 563.501 256.229C563.637 257.289 563.652 258.364 563.501 259.439C563.235 263.662 562.095 267.783 560.153 271.542C558.211 275.3 555.51 278.615 552.22 281.274C545.761 286.453 537.993 289.739 529.779 290.769C527.774 291.095 525.751 291.307 523.722 291.405C521.723 291.601 519.709 291.647 517.665 291.708C513.668 291.859 509.715 291.844 505.778 291.859C497.905 291.859 490.137 291.647 482.49 291.435C467.196 290.981 452.342 290.299 438.017 289.588C409.368 288.225 382.808 285.984 358.732 285.681L294.772 283.773H294.484V283.485L309.914 231.017L314.017 217.132C314.487 215.618 314.835 214.391 315.092 213.574C315.35 212.756 315.441 212.211 315.441 212.211Z" fill="#455A64"/>
<path d="M493.498 235.666C493.979 235.655 494.459 235.716 494.921 235.848C495.845 236.014 497.147 236.302 498.768 236.696C503 237.678 507.12 239.094 511.063 240.92C515.056 242.746 518.585 245.447 521.39 248.825C521.871 249.402 522.316 250.009 522.723 250.642C523.062 251.121 523.361 251.627 523.616 252.156C523.882 252.565 524.091 253.008 524.237 253.473C524.1 253.549 523.116 251.717 520.966 249.249C518.108 246.051 514.624 243.474 510.73 241.678C506.817 239.885 502.766 238.411 498.616 237.271C496.88 236.837 495.171 236.301 493.498 235.666Z" fill="#455A64"/>
<path d="M108.098 262.059C108.098 262.059 92.2745 253.064 89.2006 252.883C84.7943 252.61 65.3971 253.276 63.0197 253.125C62.5861 253.097 62.1534 253.192 61.7704 253.397C61.3874 253.602 61.0693 253.91 60.8521 254.286C60.6348 254.663 60.527 255.092 60.5408 255.526C60.5546 255.961 60.6894 256.382 60.9301 256.744C61.8235 258.258 63.9586 260.711 70.0155 260.56C73.7295 260.322 77.4533 260.837 80.9633 262.074C82.4775 262.68 82.0384 264.512 82.0384 264.512C82.0384 264.512 73.3316 264.981 70.8028 264.391C67.3201 263.573 55.8272 255.76 55.8272 255.76L51.2845 252.837C51.2845 252.837 49.3615 255.169 52.3596 259.515C54.4196 262.417 56.676 265.174 59.1131 267.768C59.1131 267.768 54.8732 270.342 58.5376 274.385C58.5376 274.385 55.8878 279.382 61.9144 282.289C62.7779 284.43 64.1254 286.343 65.8513 287.876C67.6836 289.391 72.3171 289.058 75.1638 289.239C79.4145 289.274 83.6601 288.939 87.853 288.24C91.6256 287.436 95.3512 286.425 99.0128 285.211L113.353 286.029L114.655 261.605L108.098 262.059Z" fill="#AE7461"/>
<path d="M68.1986 272.871C66.242 272.5 64.3724 271.765 62.6868 270.705C60.8757 269.878 59.2329 268.723 57.8413 267.298C59.6563 268.058 61.4038 268.97 63.0654 270.024C64.8508 270.832 66.5675 271.784 68.1986 272.871Z" fill="#6F4439"/>
<path d="M66.3058 278.291C64.6892 278.172 63.1279 277.652 61.7631 276.777C60.3009 276.151 59.0124 275.179 58.0078 273.946C59.4422 274.532 60.8207 275.247 62.1265 276.081C63.5821 276.693 64.9807 277.433 66.3058 278.291Z" fill="#6F4439"/>
<path d="M66.6389 284.167C65.2378 284.186 63.8608 283.802 62.6716 283.061C61.367 282.554 60.2366 281.682 59.416 280.548C60.6797 281.032 61.892 281.64 63.035 282.365C64.2932 282.844 65.5004 283.448 66.6389 284.167Z" fill="#6F4439"/>
<g opacity="0.3">
<path d="M224.996 262.65C233.082 252.05 237.231 238.952 238.912 225.763C240.593 212.574 240.199 200.021 239.548 186.772C236.962 212.447 232.092 237.84 224.996 262.65Z" fill="black"/>
</g>
<path d="M240.956 171.418C241.092 172.765 240.956 168.48 240.956 169.904C240.578 188.074 229.917 265.133 216.062 280.139C205.463 291.602 106.402 286.726 106.402 286.726L107.493 260.908C107.493 260.908 110.158 260.136 127.95 257.88C145.742 255.624 182.068 246.387 182.068 246.387L194.182 165.694" fill="#FF3500"/>
<path d="M194.182 165.694C194.182 165.694 194.182 166.179 194.015 167.208L193.425 171.448C192.88 175.188 192.077 180.654 191.048 187.65C188.958 201.687 185.96 221.872 182.28 246.493V246.705H182.083C171.484 249.415 159.855 252.232 147.377 254.867C141.139 256.169 134.688 257.441 127.98 258.334C121.272 259.227 114.352 260 107.568 261.363L107.841 260.999C107.493 269.237 107.129 277.943 106.766 286.817L106.387 286.408C113.383 286.726 120.803 286.968 128.328 287.15C142.502 287.483 156.342 287.559 169.712 287.15C176.39 286.953 182.946 286.65 189.397 286.135C195.644 285.724 201.851 284.833 207.961 283.47C209.43 283.109 210.871 282.649 212.277 282.092C213.654 281.607 214.902 280.815 215.926 279.775C217.788 277.527 219.318 275.023 220.469 272.341C222.756 267.19 224.669 261.882 226.193 256.456C229.221 245.978 231.356 236.014 233.128 226.899C236.626 208.652 238.609 193.737 239.76 183.41C240.335 178.247 240.669 174.219 240.805 171.493C240.805 170.812 240.805 170.206 240.896 169.691C240.896 169.691 240.896 169.691 240.971 169.691V170.948C240.971 171.297 240.971 171.554 240.881 171.751C240.867 171.655 240.867 171.559 240.881 171.463C240.881 171.463 240.881 171.569 240.881 171.721C240.881 171.569 240.881 171.297 240.881 170.948V169.752C240.881 169.752 240.881 169.752 240.987 169.752C240.987 170.277 240.987 170.883 240.987 171.569C240.896 174.295 240.608 178.323 240.093 183.501C239.033 193.843 237.065 208.789 233.688 227.065C231.947 236.151 229.842 246.175 226.829 256.699C225.312 262.159 223.405 267.503 221.12 272.689C219.931 275.417 218.366 277.965 216.471 280.26C215.369 281.371 214.035 282.224 212.565 282.758C211.132 283.334 209.659 283.805 208.158 284.167C201.999 285.554 195.742 286.466 189.442 286.892C183.022 287.422 176.45 287.74 169.758 287.937C156.372 288.316 142.502 288.24 128.328 287.937C120.757 287.755 113.383 287.513 106.387 287.195H105.994V286.817C106.372 277.928 106.736 269.237 107.099 260.999V260.711H107.372C110.9 259.954 114.322 259.53 117.759 259.031L127.904 257.713C134.567 256.835 141.018 255.563 147.241 254.276C159.718 251.672 171.332 248.885 181.932 246.205L181.705 246.463C185.49 221.856 188.594 201.687 190.79 187.65C191.88 180.67 192.743 175.218 193.334 171.478C193.622 169.646 193.849 168.223 194.015 167.254C194.182 166.285 194.182 165.694 194.182 165.694Z" fill="#263238"/>
</g>
<defs>
<filter id="filter0_d_28_341" x="0" y="0" width="583.608" height="321.859" filterUnits="userSpaceOnUse" color-interpolation-filters="sRGB">
<feFlood flood-opacity="0" result="BackgroundImageFix"/>
<feColorMatrix in="SourceAlpha" type="matrix" values="0 0 0 0 0 0 0 0 0 0 0 0 0 0 0 0 0 0 127 0" result="hardAlpha"/>
<feOffset dy="10"/>
<feGaussianBlur stdDeviation="10"/>
<feComposite in2="hardAlpha" operator="out"/>
<feColorMatrix type="matrix" values="0 0 0 0 0 0 0 0 0 0 0 0 0 0 0 0 0 0 0.24 0"/>
<feBlend mode="normal" in2="BackgroundImageFix" result="effect1_dropShadow_28_341"/>
<feBlend mode="normal" in="SourceGraphic" in2="effect1_dropShadow_28_341" result="shape"/>
</filter>
</defs>
</svg>
